<?xml version="1.0" encoding="UTF-8"?>
<!DOCTYPE svg PUBLIC "-//W3C//DTD SVG 1.1//EN" "http://www.w3.org/Graphics/SVG/1.1/DTD/svg11.dtd">
<!-- Creator: CorelDRAW X7 -->
<svg xmlns="http://www.w3.org/2000/svg" xml:space="preserve" width="6971px" height="6926px" version="1.1" style="shape-rendering:geometricPrecision; text-rendering:geometricPrecision; image-rendering:optimizeQuality; fill-rule:evenodd; clip-rule:evenodd"
viewBox="0 0 6971 6926"
 xmlns:xlink="http://www.w3.org/1999/xlink">
 <defs>
  <style type="text/css">
   <![CDATA[
    .fil1 {fill:#66BB6A}
    .fil0 {fill:#66BB6A;fill-opacity:0.600000}
   ]]>
  </style>
 </defs>
 <g id="Layer_x0020_1">
  <metadata id="CorelCorpID_0Corel-Layer"/>
  <g id="_906322592">
   <path class="fil0" d="M6662 2348l-2060 0c-589,115 -758,2627 -2261,2510l21 1814c55,141 179,220 356,254l1594 -11c140,-38 232,-142 282,-306l40 -2018 2013 -11c135,-40 228,-143 282,-306 54,-163 64,-1566 -19,-1697 -32,-110 -108,-191 -248,-229z"/>
   <path class="fil1" d="M4592 2017c-5,4 -9,8 -15,11 -1243,688 -573,2193 -2145,2548 -4,1 -9,0 -14,0l-2105 9c-258,-54 -307,-229 -313,-456 0,-17 4,-1470 4,-1470 44,-212 170,-311 360,-325l1971 0 2 -1997c32,-152 116,-295 324,-335l1591 -2c221,37 333,194 337,327 5,133 -2,1695 3,1690z"/>
  </g>
 </g>
</svg>
