<?xml version="1.0" encoding="UTF-8"?>
<!DOCTYPE svg PUBLIC "-//W3C//DTD SVG 1.1//EN" "http://www.w3.org/Graphics/SVG/1.1/DTD/svg11.dtd">
<!-- Creator: CorelDRAW X7 -->
<svg xmlns="http://www.w3.org/2000/svg" xml:space="preserve" width="1400px" height="1400px" version="1.1" style="shape-rendering:geometricPrecision; text-rendering:geometricPrecision; image-rendering:optimizeQuality; fill-rule:evenodd; clip-rule:evenodd"
viewBox="0 0 1400 1400"
 xmlns:xlink="http://www.w3.org/1999/xlink">
 <defs>
  <style type="text/css">
   <![CDATA[
    .fil1 {fill:#D083FF}
    .fil0 {fill:#D285FF;fill-opacity:0.600000}
   ]]>
  </style>
     <clipPath id="id0">
      <path d="M3 851c0,0 0,0 0,0l0 0zm0 0c0,-1 0,-1 0,-1l0 0c0,0 0,0 0,1l0 0zm850 -846c0,0 0,0 0,0l0 0zm0 0c0,0 0,0 0,0 0,0 0,0 0,0l0 0zm-1 0c0,0 0,0 0,0 0,0 0,0 0,0l0 0zm-1 0c0,0 0,0 0,0 0,0 0,0 0,0zm0 0c0,0 0,0 0,0 0,0 0,0 0,0l0 0zm0 0c0,0 0,0 0,0 0,0 0,0 0,0l0 0zm0 0c0,0 0,0 0,0 0,0 0,0 0,0l0 0zm-1 0c0,0 0,0 0,0 0,0 0,0 0,0zm0 0c0,0 0,0 0,0 0,0 0,0 0,0l0 0zm0 0c0,0 0,0 0,0 0,0 0,0 0,0zm0 0c0,0 0,0 0,0 0,0 0,0 0,0l0 0zm-1 0c0,0 0,0 0,0 0,0 0,0 0,0l0 0zm0 0c0,0 0,0 0,0 0,0 0,0 0,0l0 0zm0 0c0,0 0,0 0,0 0,0 0,0 0,0l0 0z"/>
     </clipPath>
 </defs>
 <g id="Layer_x0020_1">
  <metadata id="CorelCorpID_0Corel-Layer"/>
  <g id="_788365568">
   <path class="fil0" d="M1339 476l-413 0c-118,23 -152,527 -453,503l4 364c11,28 36,44 71,51l320 -2c28,-8 47,-29 57,-62l8 -404 403 -2c27,-8 46,-29 57,-62 11,-32 13,-314 -4,-340 -6,-22 -22,-38 -50,-46z"/>
   <g>
    <path class="fil1" d="M3 854c0,-1 0,-2 0,-3 0,1 0,2 0,3zm0 -3c0,0 0,0 0,0 0,0 0,0 0,0zm850 -846l0 0 0 0zm0 0c-1,0 -1,0 -1,0 0,0 0,0 1,0l0 0zm-1 0c-1,0 -1,0 -1,0 0,0 0,0 1,0zm-1 0c0,0 0,0 0,0 0,0 0,0 0,0zm0 0c0,0 0,0 0,0 0,0 0,0 0,0l0 0zm0 0c0,0 0,0 0,0 0,0 0,0 0,0l0 0zm0 0c0,0 0,0 -1,0 1,0 1,0 1,0l0 0zm-1 0c0,0 0,0 0,0 0,0 0,0 0,0zm0 0c0,0 0,0 0,0 0,0 0,0 0,0zm0 0c0,0 0,0 0,0 0,0 0,0 0,0l0 0zm0 0c0,0 0,0 -1,0 1,0 1,0 1,0l0 0zm-1 0c0,0 0,0 0,0 0,0 0,0 0,0l0 0zm0 0c0,0 0,0 0,0 0,0 0,0 0,0l0 0z"/>
    <path class="fil1" d="M859 6l0 0c-2,-1 -4,-1 -6,-1 2,0 4,0 6,1zm-855 855l0 0c0,-3 0,-5 -1,-7 1,2 1,4 1,7zm849 -856l0 0 0 0 0 0z"/>
    <path class="fil1" d="M5 866l0 0c0,-1 -1,-3 -1,-5l0 0c0,2 1,3 1,5zm854 -860l0 0c2,0 4,0 6,1 -2,-1 -4,-1 -6,-1z"/>
    <path class="fil1" d="M871 8l0 0c-2,-1 -4,-1 -6,-1 2,0 4,0 6,1zm-864 864l0 0c-1,-2 -1,-4 -2,-6l0 0c1,2 1,4 2,6z"/>
    <path class="fil1" d="M876 10l0 0c-2,-1 -4,-1 -5,-2l0 0c1,1 3,1 5,2zm-868 867l0 0c0,-1 -1,-3 -1,-5l0 0c0,2 1,3 1,5l0 0z"/>
    <path class="fil1" d="M881 12l0 0c-2,-1 -4,-2 -5,-2l0 0c1,0 3,1 5,2zm-866 865l-5 5c0,-1 -1,-3 -2,-5l0 0 2 0c2,0 4,0 5,0z"/>
    <path class="fil1" d="M885 14l0 0c-1,-1 -3,-1 -4,-2l0 0c1,1 3,1 4,2zm-862 863l-10 10c-1,-2 -2,-3 -3,-5l5 -5c3,0 5,0 8,0z"/>
    <path class="fil1" d="M890 17l0 0c-2,-1 -3,-2 -5,-3l0 0c2,1 3,2 5,3zm-860 860l-15 14c-1,-1 -1,-3 -2,-4l10 -10c2,0 4,0 7,0z"/>
    <path class="fil1" d="M894 20l0 0c-2,-1 -3,-2 -4,-3l0 0c1,1 3,2 4,3zm-857 856l-19 19c-1,-1 -2,-2 -3,-4l15 -14c2,0 5,0 7,-1z"/>
    <path class="fil1" d="M898 23l0 0c-2,-1 -3,-2 -4,-3l0 0c1,1 2,2 4,3zm-853 853l-24 23c-1,-1 -2,-2 -3,-4l19 -19c3,0 5,0 8,0z"/>
    <path class="fil1" d="M901 26l0 0c-1,-1 -2,-2 -3,-3l0 0c1,1 2,2 3,3zm-849 850l-27 27c-1,-1 -3,-3 -4,-4l24 -23c2,0 5,0 7,0z"/>
    <path class="fil1" d="M905 30l0 0c-1,-1 -2,-3 -4,-4l0 0c2,1 3,3 4,4zm-845 845l-32 31c-1,-1 -2,-2 -3,-3l27 -27c3,-1 5,-1 8,-1z"/>
    <path class="fil1" d="M908 34l0 0c-1,-2 -2,-3 -3,-4l0 0c1,1 2,2 3,4zm-841 840l-35 36c-1,-1 -2,-3 -4,-4l32 -31c2,0 5,0 7,-1z"/>
    <path class="fil1" d="M911 38l0 0c-1,-2 -2,-3 -3,-4l0 0c1,1 2,2 3,4zm-121 120l-39 40c12,-14 26,-27 39,-40zm-715 715l-39 39c-1,0 -3,-1 -4,-2l35 -36c3,0 6,0 8,-1z"/>
    <path class="fil1" d="M914 42l0 0c-1,-2 -2,-3 -3,-4l0 0c1,1 2,2 3,4zm-80 79l-120 120c3,-3 6,-7 8,-10 9,-11 19,-22 29,-33l39 -40c14,-13 29,-25 44,-37zm-751 751l-43 43c-1,-1 -2,-2 -4,-3l39 -39c3,0 6,0 8,-1z"/>
    <path class="fil1" d="M916 46l0 0c-1,-1 -1,-3 -2,-4l0 0c1,1 1,3 2,4zm-56 56l-165 165c7,-9 13,-17 19,-26l120 -120c9,-6 17,-13 26,-19zm-769 769l-46 47c-2,-1 -3,-2 -5,-3l43 -43c3,0 6,0 8,-1z"/>
    <path class="fil1" d="M918 51l0 0c0,-1 -1,-3 -2,-5l0 0c1,2 2,4 2,5zm-37 37l-200 201c5,-7 9,-15 14,-22l165 -165c7,-5 14,-9 21,-14zm-781 782l-50 50c-2,-1 -4,-2 -5,-2l46 -47c3,0 6,0 9,-1z"/>
    <path class="fil1" d="M920 56l0 0c0,-1 -1,-3 -2,-5l0 0c1,2 2,4 2,5zm-20 21l-231 231c4,-6 8,-13 12,-19l200 -201c7,-4 13,-8 19,-11zm-792 792l-53 53c-2,-1 -4,-1 -5,-2l50 -50c2,0 5,-1 8,-1z"/>
    <path class="fil1" d="M922 62l0 0c-1,-2 -1,-4 -2,-6l0 0c1,2 1,4 2,6zm-5 5l-259 259c3,-6 7,-12 11,-18l231 -231c5,-4 11,-7 17,-10zm-801 800l-56 56c-2,0 -3,-1 -5,-1l53 -53c3,-1 6,-1 8,-2z"/>
    <path class="fil1" d="M923 67l-275 276c3,-6 6,-12 10,-17l259 -259c2,-1 3,-2 5,-3 0,-1 0,-2 0,-2l0 0c0,2 1,4 1,5zm-798 798l-59 60c-2,-1 -4,-1 -6,-2l56 -56c3,0 6,-1 9,-2z"/>
    <path class="fil1" d="M924 74l-285 285c3,-6 6,-11 9,-16l275 -276c1,3 1,5 1,7zm-790 790l-62 61c-2,0 -4,0 -6,0l59 -60c3,0 6,-1 9,-1z"/>
    <path class="fil1" d="M924 80l-294 294c3,-5 6,-10 9,-15l285 -285c0,2 0,4 0,6l0 0zm-781 782l-64 64 0 0c-2,0 -5,0 -7,-1l62 -61c3,-1 6,-2 9,-2z"/>
    <path class="fil1" d="M924 87l-302 302c3,-5 6,-10 8,-15l294 -294 0 7zm-772 772l-66 67 -7 0 64 -64c3,-1 6,-2 9,-3z"/>
    <path class="fil1" d="M924 94l-309 310c2,-5 5,-10 7,-15l302 -302 0 7zm-762 763l-69 69 -7 0 66 -67c4,-1 7,-1 10,-2z"/>
    <path class="fil1" d="M924 101l-317 318c3,-5 5,-10 8,-15l309 -310 0 7zm-752 753l-72 72 -7 0 69 -69c3,-1 6,-2 10,-3z"/>
    <path class="fil1" d="M924 108l-324 325c2,-5 5,-10 7,-14l317 -318 0 7zm-742 743l-75 75 -7 0 72 -72c3,-1 6,-2 10,-3z"/>
    <path class="fil1" d="M924 115l-332 332 8 -14 324 -325 0 7zm-732 733l-78 78 -7 0 75 -75c3,-1 6,-2 10,-3z"/>
    <path class="fil1" d="M924 122l-339 339 4 -7 3 -7 332 -332 0 7zm-722 722l-81 82 -7 0 78 -78c3,-1 7,-3 10,-4z"/>
    <path class="fil1" d="M924 129l-346 347 7 -15 339 -339 0 7zm-711 711l-85 86 -7 0 81 -82c4,-1 8,-2 11,-4z"/>
    <path class="fil1" d="M924 136l-353 354c2,-5 4,-9 7,-14l346 -347 0 7zm-699 700l-90 90 -7 0 85 -86c4,-1 8,-2 12,-4z"/>
    <path class="fil1" d="M924 143l-361 362c3,-5 5,-10 8,-15l353 -354 0 7zm-688 688l-94 95 -7 0 90 -90c4,-2 8,-3 11,-5z"/>
    <path class="fil1" d="M924 150l-369 369c3,-4 5,-9 8,-14l361 -362 0 7zm-675 676l-100 100 -7 0 94 -95c5,-1 9,-3 13,-5z"/>
    <path class="fil1" d="M924 157l-377 378c3,-5 6,-10 8,-16l369 -369 0 7zm-662 663l-106 106 -7 0 100 -100c4,-2 8,-4 13,-6z"/>
    <path class="fil1" d="M924 164l-385 386c2,-5 5,-10 8,-15l377 -378 0 7zm-649 649l-112 113 -7 0 106 -106c4,-2 9,-4 13,-7z"/>
    <path class="fil1" d="M924 171l-395 395c3,-5 6,-10 10,-16l385 -386 0 7zm-634 635l-120 120 -7 0 112 -113c5,-2 10,-5 15,-7z"/>
    <path class="fil1" d="M924 178l-405 406c4,-6 7,-12 10,-18l395 -395 0 7zm-618 619l-129 129 -7 0 120 -120c5,-3 10,-6 16,-9z"/>
    <path class="fil1" d="M924 185l-416 417c4,-6 7,-12 11,-18l405 -406 0 7zm-601 602l-139 139 -7 0 129 -129c6,-3 11,-7 17,-10z"/>
    <path class="fil1" d="M924 192l-430 431c5,-7 9,-14 14,-21l416 -417 0 7zm-581 582l-152 152 -7 0 139 -139c7,-5 14,-9 20,-13z"/>
    <path class="fil1" d="M924 199l-448 449c6,-8 12,-17 18,-25l430 -431 0 7zm-556 556l-170 171 -7 0 152 -152c9,-6 17,-12 25,-19z"/>
    <path class="fil1" d="M924 206l-486 487c11,-12 22,-25 32,-38 2,-2 4,-5 6,-7l448 -449 0 7zm-510 511l-209 209 -7 0 170 -171c16,-12 31,-25 46,-38z"/>
    <path class="fil1" d="M924 213l-712 713 -7 0 209 -209c8,-8 16,-16 24,-24l486 -487 0 7z"/>
    <polygon class="fil1" points="924,221 219,926 212,926 924,213 "/>
    <polygon class="fil1" points="924,228 226,926 219,926 924,221 "/>
    <polygon class="fil1" points="924,235 233,926 226,926 924,228 "/>
    <polygon class="fil1" points="924,242 240,926 233,926 924,235 "/>
    <polygon class="fil1" points="924,249 247,926 240,926 924,242 "/>
    <polygon class="fil1" points="924,256 254,926 247,926 924,249 "/>
    <polygon class="fil1" points="924,263 261,926 254,926 924,256 "/>
    <polygon class="fil1" points="924,270 268,926 261,926 924,263 "/>
    <polygon class="fil1" points="924,277 275,926 268,926 924,270 "/>
    <polygon class="fil1" points="924,284 282,926 275,926 924,277 "/>
    <polygon class="fil1" points="924,291 289,926 282,926 924,284 "/>
    <polygon class="fil1" points="924,298 296,926 289,926 924,291 "/>
    <polygon class="fil1" points="924,305 303,926 296,926 924,298 "/>
    <polygon class="fil1" points="924,312 310,926 303,926 924,305 "/>
    <polygon class="fil1" points="924,319 317,926 310,926 924,312 "/>
    <polygon class="fil1" points="924,326 324,926 317,926 924,319 "/>
    <polygon class="fil1" points="924,333 331,926 324,926 924,326 "/>
    <polygon class="fil1" points="924,340 338,926 331,926 924,333 "/>
    <polygon class="fil1" points="924,347 345,926 338,926 924,340 "/>
    <polygon class="fil1" points="924,354 352,926 345,926 924,347 "/>
    <polygon class="fil1" points="924,361 359,926 352,926 924,354 "/>
    <polygon class="fil1" points="924,368 366,926 359,926 924,361 "/>
    <polygon class="fil1" points="924,375 373,926 366,926 924,368 "/>
    <polygon class="fil1" points="924,382 380,926 373,926 924,375 "/>
    <polygon class="fil1" points="924,389 387,926 380,926 924,382 "/>
    <path class="fil1" d="M924 396l-46 45c-20,17 -38,35 -54,55l-430 430 -7 0 537 -537 0 7z"/>
    <path class="fil1" d="M924 403l-19 19c-9,6 -18,13 -27,19l46 -45 0 7zm-119 119l-404 404 -7 0 430 -430c-7,8 -13,17 -19,26z"/>
    <path class="fil1" d="M924 410l-1 1c-6,3 -12,7 -18,11l19 -19 0 7zm-130 130l-386 386 -7 0 404 -404c-3,4 -6,9 -9,15 -1,1 -1,2 -2,3z"/>
    <path class="fil1" d="M786 555l-371 371 -7 0 386 -386c-3,5 -5,10 -8,15zm137 -144l1 -1 0 0 -1 1z"/>
    <path class="fil1" d="M779 568l-357 358 -7 0 371 -371c-2,4 -4,9 -7,13z"/>
    <path class="fil1" d="M774 581l-345 345 -7 0 357 -358c-2,5 -3,9 -5,13z"/>
    <path class="fil1" d="M769 593l-333 333 -7 0 345 -345c-2,4 -4,8 -5,12z"/>
    <path class="fil1" d="M764 605l-321 321 -7 0 333 -333c-2,4 -3,8 -5,12z"/>
    <path class="fil1" d="M760 616l-310 310 -7 0 321 -321c-1,3 -3,7 -4,11z"/>
    <path class="fil1" d="M756 627l-299 299 -7 0 310 -310c-1,4 -3,7 -4,11z"/>
    <path class="fil1" d="M752 638l-288 288 -7 0 299 -299c-1,4 -3,7 -4,11z"/>
    <path class="fil1" d="M749 648l-277 277c-1,0 -2,1 -3,1l0 0 -5 0 288 -288c-1,3 -2,7 -3,10z"/>
    <path class="fil1" d="M745 659l-265 265c-3,1 -6,1 -8,1l277 -277 -4 11z"/>
    <path class="fil1" d="M741 670l-253 253c-3,0 -5,1 -8,1l265 -265 -1 3 -3 8z"/>
    <path class="fil1" d="M738 680l-241 241c-3,1 -6,1 -9,2l253 -253 -3 10z"/>
    <path class="fil1" d="M734 691l-228 228c-3,1 -6,1 -9,2l241 -241c-1,4 -3,7 -4,11z"/>
    <path class="fil1" d="M730 702l-214 214c-3,1 -7,2 -10,3l228 -228c-1,3 -2,7 -4,11z"/>
    <path class="fil1" d="M726 713l-200 200c-4,1 -7,2 -10,3l214 -214c-1,3 -2,7 -4,11z"/>
    <path class="fil1" d="M722 724l-185 185c-4,2 -8,3 -11,4l200 -200c-1,4 -3,7 -4,11z"/>
    <path class="fil1" d="M717 736l-169 169c-4,2 -8,3 -11,4l185 -185c-2,4 -4,8 -5,12z"/>
    <path class="fil1" d="M711 749l-151 151c-4,1 -8,3 -12,5l169 -169c-2,4 -4,9 -6,13z"/>
    <path class="fil1" d="M705 762l-131 131c-4,2 -9,4 -14,7l151 -151c-2,4 -4,9 -6,13z"/>
    <path class="fil1" d="M696 778l-106 106c-5,3 -10,6 -16,9l131 -131c-3,5 -5,9 -7,13 -1,1 -1,2 -2,3z"/>
    <path class="fil1" d="M683 798l-73 73c-6,4 -13,9 -20,13l106 -106c-4,7 -8,13 -13,20z"/>
    <path class="fil1" d="M610 871l73 -73c-19,28 -44,53 -73,73z"/>
    <g style="clip-path:url(#id0)">
     <image transform="matrix(1.83519 -0 -0 -1.83519 -1.21209 854.829)" x="0" y="0" width="468" height="466" xlink:href="logo-mini_Images\logo-mini_ImgID1.png"/>
    </g>
    <path class="fil1" d="M500 21l-12 12c4,-4 8,-8 12,-12zm-468 468l-12 13c3,-5 7,-9 12,-13z"/>
    <path class="fil1" d="M518 11l-40 40c2,-7 6,-12 10,-18l12 -12c5,-4 11,-8 18,-10zm-469 468l-40 40c3,-6 6,-12 11,-17l12 -13c5,-4 11,-7 17,-10z"/>
    <path class="fil1" d="M528 7l-54 54c1,-3 2,-7 4,-10l40 -40c3,-2 6,-3 10,-4zm-468 468l-54 55c1,-4 2,-8 3,-11l40 -40c4,-1 7,-3 11,-4z"/>
    <path class="fil1" d="M537 6l-65 64c1,-3 1,-6 2,-9l54 -54c3,-1 6,-1 9,-1zm-468 468l-65 64c0,-3 1,-6 2,-8l54 -55c3,0 6,-1 9,-1z"/>
    <path class="fil1" d="M544 5l-72 73c0,-3 0,-5 0,-8l65 -64c2,-1 5,-1 7,-1zm-468 468l-73 73c0,-3 1,-5 1,-8l65 -64c2,-1 5,-1 7,-1z"/>
    <path class="fil1" d="M552 5l-80 80 0 -5c0,-1 0,-1 0,-2l72 -73c1,0 2,0 3,0l5 0zm-469 468l-80 80 0 -4c0,-1 0,-2 0,-3l73 -73c1,0 2,0 3,0l4 0z"/>
    <path class="fil1" d="M559 5l-87 87 0 -7 80 -80 7 0zm-469 468l-87 87 0 -7 80 -80 7 0z"/>
    <path class="fil1" d="M566 5l-94 94 0 -7 87 -87 7 0zm-469 468l-94 94 0 -7 87 -87 7 0z"/>
    <path class="fil1" d="M573 5l-101 101 0 -7 94 -94 7 0zm-469 468l-101 101 0 -7 94 -94 7 0z"/>
    <path class="fil1" d="M580 5l-108 108 0 -7 101 -101 7 0zm-469 468l-108 108 0 -7 101 -101 7 0z"/>
    <path class="fil1" d="M587 5l-115 115 0 -7 108 -108 7 0zm-469 468l-115 115 0 -7 108 -108 7 0z"/>
    <path class="fil1" d="M594 5l-122 122 0 -7 115 -115 7 0zm-469 468l-122 122 0 -7 115 -115 7 0z"/>
    <path class="fil1" d="M601 5l-129 129 0 -7 122 -122 7 0zm-469 468l-129 129 0 -7 122 -122 7 0z"/>
    <path class="fil1" d="M608 5l-136 136 0 -7 129 -129 7 0zm-469 468l-136 136 0 -7 129 -129 7 0z"/>
    <path class="fil1" d="M615 5l-143 143 0 -7 136 -136 7 0zm-469 468l-143 143 0 -7 136 -136 7 0z"/>
    <path class="fil1" d="M622 5l-150 150 0 -7 143 -143 7 0zm-469 468l-150 150 0 -7 143 -143 7 0z"/>
    <path class="fil1" d="M629 5l-157 157 0 -7 150 -150 7 0zm-469 468l-157 157 0 -7 150 -150 7 0z"/>
    <path class="fil1" d="M636 5l-164 164 0 -7 157 -157 7 0zm-469 468l-164 164 0 -7 157 -157 7 0z"/>
    <path class="fil1" d="M643 5l-171 171 0 -7 164 -164 7 0zm-469 468l-171 171 0 -7 164 -164 7 0z"/>
    <path class="fil1" d="M650 5l-178 178 0 -7 171 -171 7 0zm-469 468l-178 178 0 -7 171 -171 7 0z"/>
    <path class="fil1" d="M657 5l-185 185 0 -7 178 -178 7 0zm-469 468l-185 185 0 -7 178 -178 7 0z"/>
    <path class="fil1" d="M664 5l-192 192 0 -7 185 -185 7 0zm-469 468l-192 192 0 -7 185 -185 7 0z"/>
    <path class="fil1" d="M671 5l-199 199 0 -7 192 -192 7 0zm-469 468l-199 199 0 -7 192 -192 7 0z"/>
    <path class="fil1" d="M678 5l-206 206 0 -7 199 -199 7 0zm-469 468l-206 206 0 -7 199 -199 7 0z"/>
    <path class="fil1" d="M685 5l-213 213 0 -7 206 -206 7 0zm-469 468l-213 213 0 -7 206 -206 7 0z"/>
    <path class="fil1" d="M692 5l-220 220 0 -7 213 -213 7 0zm-469 468l-220 220 0 -7 213 -213 7 0z"/>
    <path class="fil1" d="M699 5l-227 227 0 -7 220 -220 7 0zm-469 468l-227 227 0 -7 220 -220 7 0z"/>
    <path class="fil1" d="M706 5l-234 234 0 -7 227 -227 7 0zm-469 468l-234 234 0 -7 227 -227 7 0z"/>
    <path class="fil1" d="M713 5l-241 241 0 -7 234 -234 7 0zm-469 468l-241 241 0 -7 234 -234 7 0z"/>
    <path class="fil1" d="M720 5l-248 248 0 -7 241 -241 7 0zm-469 468l-248 248 0 -7 241 -241 7 0z"/>
    <path class="fil1" d="M727 5l-255 255 0 -7 248 -248 7 0zm-469 468l-255 255 0 -7 248 -248 7 0z"/>
    <path class="fil1" d="M734 5l-262 262 0 -7 255 -255 7 0zm-469 468l-262 262 0 -7 255 -255 7 0z"/>
    <path class="fil1" d="M741 5l-269 269 0 -7 262 -262 7 0zm-469 468l-269 269 0 -7 262 -262 7 0z"/>
    <path class="fil1" d="M748 5l-276 276 0 -7 269 -269 7 0zm-469 468l-276 276 0 -7 269 -269 7 0z"/>
    <path class="fil1" d="M755 5l-283 283 0 -7 276 -276 7 0zm-469 468l-283 283 0 -7 276 -276 7 0z"/>
    <path class="fil1" d="M762 5l-290 290 0 -7 283 -283 7 0zm-469 468l-290 290 0 -7 283 -283 7 0z"/>
    <path class="fil1" d="M769 5l-297 297 0 -7 290 -290 7 0zm-469 468l-297 297 0 -7 290 -290 7 0z"/>
    <path class="fil1" d="M776 5l-304 304 0 -7 297 -297 7 0zm-469 468l-304 304 0 -7 297 -297 7 0z"/>
    <path class="fil1" d="M783 5l-311 311 0 -7 304 -304 7 0zm-469 468l-311 311 0 -7 304 -304 7 0z"/>
    <path class="fil1" d="M790 5l-318 318 0 -7 311 -311 7 0zm-469 468l-318 318 0 -7 311 -311 7 0z"/>
    <path class="fil1" d="M797 5l-325 325 0 -7 318 -318 7 0zm-469 468l-325 325 0 -7 318 -318 7 0z"/>
    <path class="fil1" d="M804 5l-332 332 0 -7 325 -325 7 0zm-469 468l-332 332 0 -7 325 -325 7 0z"/>
    <path class="fil1" d="M811 5l-339 339 0 -7 332 -332 7 0zm-469 468l-339 339 0 -7 332 -332 7 0z"/>
    <path class="fil1" d="M818 5l-346 346 0 -7 339 -339 7 0zm-469 468l-346 346 0 -7 339 -339 7 0z"/>
    <path class="fil1" d="M825 5l-353 353 0 -7 346 -346 7 0zm-469 468l-353 353 0 -7 346 -346 7 0z"/>
    <path class="fil1" d="M832 5l-360 360 0 -7 353 -353 7 0zm-469 468l-360 360 0 -7 353 -353 7 0z"/>
    <path class="fil1" d="M839 5l-367 367 0 -7 360 -360 7 0zm-469 468l-367 367 0 -7 360 -360 7 0z"/>
    <path class="fil1" d="M846 5l-374 374 0 -7 367 -367 7 0zm-469 468l-374 374 0 -7 367 -367 7 0z"/>
    <path class="fil1" d="M853 5l-381 381 0 -7 374 -374 3 0c0,0 0,0 0,0 0,0 0,0 0,0 0,0 0,0 0,0 0,0 0,0 0,0 0,0 0,0 0,0 1,0 1,0 1,0 0,0 0,0 0,0 0,0 0,0 0,0 0,0 0,0 0,0 0,0 0,0 0,0 0,0 0,0 0,0 0,0 0,0 0,0 0,0 0,0 0,0 1,0 1,0 1,0 0,0 0,0 0,0 0,0 0,0 0,0 0,0 0,0 0,0 0,0 0,0 0,0 0,0 0,0 0,0 0,0 0,0 0,0 0,0 0,0 0,0 0,0 0,0 1,0 0,0 0,0 0,0 0,0 0,0 1,0 0,0 0,0 0,0l0 0zm-469 468l-381 381c0,-1 0,-2 0,-3l0 0c0,0 0,0 0,0 0,-1 0,-1 0,-1l0 -3 374 -374 7 0z"/>
    <path class="fil1" d="M859 6l-387 387 0 -7 381 -381 0 0c2,0 4,0 6,1zm-468 467l-387 388c0,-3 0,-5 -1,-7l381 -381 7 0z"/>
    <path class="fil1" d="M865 7l-393 393 0 -7 387 -387c2,0 4,0 6,1zm-467 466l-393 393c0,-2 -1,-3 -1,-5l387 -388 7 0z"/>
    <path class="fil1" d="M871 8l-399 399 0 -7 393 -393c2,0 4,0 6,1zm-466 465l-398 399c-1,-2 -1,-4 -2,-6l393 -393 7 0z"/>
    <path class="fil1" d="M876 10l-404 404 0 -7 399 -399c1,1 3,1 5,2zm-464 463l-404 404 0 0c0,-2 -1,-3 -1,-5l398 -399 7 0z"/>
    <path class="fil1" d="M881 12l-409 409 0 -7 404 -404c1,0 3,1 5,2zm-462 461l-404 404c-1,0 -3,0 -5,0l-2 0 404 -404 7 0z"/>
    <path class="fil1" d="M885 14l-413 414 0 -7 409 -409c1,1 3,1 4,2zm-459 459l-403 404c-3,0 -5,0 -8,0l404 -404 7 0z"/>
    <path class="fil1" d="M890 17l-418 418 0 -7 413 -414c2,1 3,2 5,3zm-457 456l-403 404c-3,0 -5,0 -7,0l403 -404 7 0z"/>
    <path class="fil1" d="M894 20l-422 422 0 -7 418 -418c1,1 2,2 4,3zm-454 453l-403 403c-2,1 -5,1 -7,1l403 -404 7 0z"/>
    <path class="fil1" d="M898 23l-426 426 0 -7 422 -422c1,1 2,2 4,3zm-451 450l-402 403c-3,0 -5,0 -8,0l403 -403 7 0z"/>
    <path class="fil1" d="M901 26l-429 430 0 -7 426 -426c1,1 2,2 3,3zm-446 447l-403 403c-2,0 -5,0 -7,0l402 -403 8 0z"/>
    <path class="fil1" d="M905 30l-433 433 0 -7 429 -430c2,1 3,3 4,4zm-443 443l-402 402c-3,0 -5,0 -8,1l403 -403 7 0z"/>
    <path class="fil1" d="M908 34l-436 436 0 -7 433 -433c1,1 2,2 3,4zm-439 439l-402 401c-2,1 -5,1 -7,1l402 -402 7 0z"/>
    <path class="fil1" d="M911 38l-121 120c-13,13 -27,26 -39,40l-676 675c-2,1 -5,1 -8,1l402 -401 3 0 0 -3 436 -436c1,1 2,2 3,4z"/>
    <path class="fil1" d="M914 42l-80 79c-15,12 -30,24 -44,37l121 -120c1,1 2,2 3,4zm-200 199l-631 631c-2,1 -5,1 -8,1l676 -675c-10,11 -20,22 -29,33 -2,3 -5,7 -8,10z"/>
    <path class="fil1" d="M916 46l-56 56c-9,6 -17,13 -26,19l80 -79c1,1 1,3 2,4zm-221 221l-604 604c-2,1 -5,1 -8,1l631 -631c-6,9 -12,17 -19,26z"/>
    <path class="fil1" d="M918 51l-37 37c-7,5 -14,9 -21,14l56 -56c1,2 2,4 2,5zm-237 238l-581 581c-3,1 -6,1 -9,1l604 -604c-5,7 -9,15 -14,22z"/>
    <path class="fil1" d="M920 56l-20 21c-6,3 -12,7 -19,11l37 -37c1,2 2,4 2,5zm-251 252l-561 561c-3,0 -6,1 -8,1l581 -581c-4,6 -8,13 -12,19z"/>
    <path class="fil1" d="M922 62l-5 5c-6,3 -12,6 -17,10l20 -21c1,2 1,4 2,6zm-264 264l-542 541c-2,1 -5,1 -8,2l561 -561c-4,6 -8,12 -11,18z"/>
    <path class="fil1" d="M648 343l-523 522c-3,1 -6,2 -9,2l542 -541c-4,5 -7,11 -10,17zm269 -276l5 -5c0,0 0,1 0,2 -2,1 -3,2 -5,3z"/>
    <path class="fil1" d="M639 359l-505 505c-3,0 -6,1 -9,1l523 -522c-3,5 -6,10 -9,16z"/>
    <path class="fil1" d="M630 374l-487 487c-3,1 -6,2 -9,3l505 -505c-3,5 -6,10 -9,15z"/>
    <path class="fil1" d="M622 389l-470 470c-3,1 -6,2 -9,2l487 -487c-2,5 -5,10 -8,15z"/>
    <path class="fil1" d="M615 404l-453 453c-3,1 -6,1 -10,2l470 -470c-2,5 -5,10 -7,15z"/>
    <path class="fil1" d="M607 419l-435 435c-4,1 -7,2 -10,3l453 -453c-3,5 -5,10 -8,15z"/>
    <path class="fil1" d="M600 433l-418 418c-4,1 -7,2 -10,3l435 -435c-2,4 -5,9 -7,14z"/>
    <path class="fil1" d="M592 447l-400 401c-4,1 -7,2 -10,3l418 -418 -8 14z"/>
    <path class="fil1" d="M585 461l-383 383c-3,1 -7,3 -10,4l400 -401 -3 7 -4 7z"/>
    <path class="fil1" d="M578 476l-365 364c-3,2 -7,3 -11,4l383 -383 -7 15z"/>
    <path class="fil1" d="M571 490l-346 346c-4,2 -8,3 -12,4l365 -364c-3,5 -5,9 -7,14z"/>
    <path class="fil1" d="M563 505l-327 326c-3,2 -7,3 -11,5l346 -346c-3,5 -5,10 -8,15z"/>
    <path class="fil1" d="M555 519l-306 307c-4,2 -8,4 -13,5l327 -326c-3,5 -5,10 -8,14z"/>
    <path class="fil1" d="M547 535l-285 285c-5,2 -9,4 -13,6l306 -307c-2,6 -5,11 -8,16z"/>
    <path class="fil1" d="M539 550l-264 263c-4,3 -9,5 -13,7l285 -285c-3,5 -6,10 -8,15z"/>
    <path class="fil1" d="M529 566l-239 240c-5,2 -10,5 -15,7l264 -263c-4,6 -7,11 -10,16z"/>
    <path class="fil1" d="M519 584l-213 213c-6,3 -11,6 -16,9l239 -240c-3,6 -6,12 -10,18z"/>
    <path class="fil1" d="M508 602l-185 185c-6,3 -11,7 -17,10l213 -213c-4,6 -7,12 -11,18z"/>
    <path class="fil1" d="M494 623l-151 151c-6,4 -13,8 -20,13l185 -185c-5,7 -9,14 -14,21z"/>
    <path class="fil1" d="M476 648l-108 107c-8,7 -16,13 -25,19l151 -151c-6,8 -12,17 -18,25z"/>
    <path class="fil1" d="M438 693l-24 24c-14,13 -30,26 -46,38l108 -107c-2,2 -4,5 -6,7 -10,13 -21,26 -32,38z"/>
    <path class="fil1" d="M414 717l24 -24c-8,8 -16,16 -24,24z"/>
   </g>
  </g>
 </g>
</svg>
