<?xml version="1.0" encoding="UTF-8"?>
<!DOCTYPE svg PUBLIC "-//W3C//DTD SVG 1.1//EN" "http://www.w3.org/Graphics/SVG/1.1/DTD/svg11.dtd">
<!-- Creator: CorelDRAW X7 -->
<svg xmlns="http://www.w3.org/2000/svg" xml:space="preserve" width="1387px" height="284px" version="1.1" style="shape-rendering:geometricPrecision; text-rendering:geometricPrecision; image-rendering:optimizeQuality; fill-rule:evenodd; clip-rule:evenodd"
viewBox="0 0 1387 284"
 xmlns:xlink="http://www.w3.org/1999/xlink">
 <defs>
  <style type="text/css">
   <![CDATA[
    .fil1 {fill:#D083FF}
    .fil0 {fill:#D285FF;fill-opacity:0.600000}
    .fil2 {fill:url(#id1);fill-rule:nonzero}
   ]]>
  </style>
      <clipPath id="id0">
       <path d="M0 173c0,0 0,0 0,0l0 0zm0 0c0,0 0,0 0,0l0 0c0,0 0,0 0,0l0 0zm174 -173c0,0 0,0 0,0l0 0zm0 0c0,0 0,0 0,0 0,0 0,0 0,0l0 0zm0 0c0,0 0,0 0,0 0,0 0,0 0,0l0 0zm0 0c0,0 0,0 0,0 0,0 0,0 0,0zm0 0c0,0 -1,0 -1,0 0,0 1,0 1,0l0 0zm-1 0c0,0 0,0 0,0 0,0 0,0 0,0l0 0zm0 0c0,0 0,0 0,0 0,0 0,0 0,0l0 0zm0 0c0,0 0,0 0,0 0,0 0,0 0,0zm0 0c0,0 0,0 0,0 0,0 0,0 0,0l0 0zm0 0c0,0 0,0 0,0 0,0 0,0 0,0zm0 0c0,0 0,0 0,0 0,0 0,0 0,0l0 0zm0 0c0,0 0,0 0,0 0,0 0,0 0,0l0 0zm0 0c0,0 0,0 0,0 0,0 0,0 0,0l0 0zm0 0c0,0 0,0 0,0 0,0 0,0 0,0l0 0z"/>
      </clipPath>
  <linearGradient id="id1" gradientUnits="userSpaceOnUse" x1="1367.14" y1="142" x2="417.027" y2="142">
   <stop offset="0" style="stop-opacity:1; stop-color:#9F59FF"/>
   <stop offset="0.54902" style="stop-opacity:0.619608; stop-color:#B76EFF"/>
   <stop offset="1" style="stop-opacity:0.619608; stop-color:#D083FF"/>
  </linearGradient>
 </defs>
 <g id="Layer_x0020_1">
  <metadata id="CorelCorpID_0Corel-Layer"/>
  <g id="_610685984">
   <g>
    <path class="fil0" d="M273 96l-84 0c-24,5 -31,108 -93,103l1 75c2,5 7,9 15,10l65 0c6,-2 9,-6 12,-13l1 -83 83 0c5,-2 9,-6 11,-13 3,-6 3,-64 0,-69 -2,-5 -5,-8 -11,-10z"/>
    <g>
     <path class="fil1" d="M0 174c0,-1 0,-1 0,-1 0,0 0,0 0,1zm0 -1c0,0 0,0 0,0 0,0 0,0 0,0zm174 -173l0 0 0 0zm0 0c0,0 0,0 0,0 0,0 0,0 0,0l0 0zm0 0c0,0 0,0 0,0 0,0 0,0 0,0zm0 0c0,0 0,0 0,0 0,0 0,0 0,0zm-1 0c0,0 0,0 0,0 0,0 0,0 0,0l0 0zm0 0c0,0 0,0 0,0 0,0 0,0 0,0l0 0zm0 0c0,0 0,0 0,0 0,0 0,0 0,0l0 0zm0 0c0,0 0,0 0,0 0,0 0,0 0,0zm0 0c0,0 0,0 0,0 0,0 0,0 0,0zm0 0c0,0 0,0 0,0 0,0 0,0 0,0l0 0zm0 0c0,0 0,0 0,0 0,0 0,0 0,0l0 0zm0 0c0,0 0,0 0,0 0,0 0,0 0,0l0 0zm0 0c0,0 0,0 0,0 0,0 0,0 0,0l0 0z"/>
     <path class="fil1" d="M175 0l0 0c0,0 -1,0 -1,0 0,0 1,0 1,0zm-175 175l0 0c0,0 0,-1 0,-1 0,0 0,1 0,1zm174 -175l0 0 0 0 0 0z"/>
     <path class="fil1" d="M0 176l0 0c0,0 0,-1 0,-1l0 0c0,0 0,1 0,1zm175 -176l0 0c1,0 1,0 1,0 0,0 0,0 -1,0z"/>
     <path class="fil1" d="M177 1l0 0c0,-1 0,-1 -1,-1 1,0 1,0 1,1zm-176 176l0 0c0,0 0,0 -1,-1l0 0c1,1 1,1 1,1z"/>
     <path class="fil1" d="M179 1l0 0c-1,0 -1,0 -2,0l0 0c1,0 1,0 2,0zm-178 177l0 0c0,0 0,0 0,-1l0 0c0,1 0,1 0,1l0 0z"/>
     <path class="fil1" d="M180 1l0 0c-1,0 -1,0 -1,0l0 0c0,0 0,0 1,0zm-177 177l-1 1c-1,0 -1,0 -1,-1l0 0 0 0c1,0 1,0 2,0z"/>
     <path class="fil1" d="M181 2l-1 0c0,0 0,0 0,-1l0 0c0,0 0,1 1,1zm-177 176l-2 2c0,0 0,0 0,-1l1 -1c0,0 1,0 1,0z"/>
     <path class="fil1" d="M181 2l0 0c0,0 0,0 -1,0l1 0c0,0 0,0 0,0zm-176 176l-2 3c-1,0 -1,0 -1,-1l2 -2c0,0 1,0 1,0z"/>
     <path class="fil1" d="M182 3l0 0c0,0 0,0 -1,-1l0 0c1,1 1,1 1,1zm-175 175l-4 4c0,0 0,0 0,-1l2 -3c1,0 1,0 2,0z"/>
     <path class="fil1" d="M183 4l0 0c0,-1 0,-1 -1,-1l0 0c1,0 1,0 1,1zm-175 174l-4 5c0,0 -1,-1 -1,-1l4 -4c0,0 1,0 1,0z"/>
     <path class="fil1" d="M184 4l0 0c0,0 -1,0 -1,0l0 0c0,0 1,0 1,0zm-174 174l-6 6c0,-1 0,-1 0,-1l4 -5c1,0 2,0 2,0z"/>
     <path class="fil1" d="M184 5l0 0c0,0 0,0 0,-1l0 0c0,1 0,1 0,1zm-172 173l-7 6c0,0 0,0 -1,0l6 -6c1,0 1,0 2,0z"/>
     <path class="fil1" d="M185 6l0 0c0,0 0,-1 -1,-1l0 0c1,0 1,1 1,1zm-172 172l-7 7c0,0 -1,0 -1,-1l7 -6c0,0 1,0 1,0z"/>
     <path class="fil1" d="M186 7l0 0c0,-1 -1,-1 -1,-1l0 0c0,0 1,0 1,1zm-25 24l-8 8c3,-2 5,-5 8,-8zm-146 147l-8 8c-1,-1 -1,-1 -1,-1l7 -7c1,0 1,0 2,0z"/>
     <path class="fil1" d="M186 7l0 0c0,0 0,0 0,0l0 0c0,0 0,0 0,0zm-16 17l-24 24c0,0 1,-1 1,-2 2,-2 4,-4 6,-7l8 -8c3,-2 6,-5 9,-7zm-154 153l-8 9c-1,0 -1,0 -1,0l8 -8c0,0 1,-1 1,-1z"/>
     <path class="fil1" d="M187 8l0 0c0,0 -1,0 -1,-1l0 0c0,1 1,1 1,1zm-12 12l-33 34c1,-2 2,-4 4,-6l24 -24c2,-2 4,-3 5,-4zm-157 157l-9 10c-1,-1 -1,-1 -1,-1l8 -9c1,0 2,0 2,0z"/>
     <path class="fil1" d="M187 9l0 0c0,0 0,0 0,-1l0 0c0,1 0,1 0,1zm-7 8l-41 41c1,-1 2,-3 3,-4l33 -34c2,-1 3,-2 5,-3zm-160 160l-10 10c-1,0 -1,0 -1,0l9 -10c1,0 1,0 2,0z"/>
     <path class="fil1" d="M188 10l0 0c0,0 -1,0 -1,-1l0 0c0,1 1,1 1,1zm-5 5l-47 47c1,-1 2,-3 3,-4l41 -41c1,-1 2,-2 3,-2zm-162 162l-10 11c-1,-1 -1,-1 -1,-1l10 -10c0,0 1,0 1,0z"/>
     <path class="fil1" d="M188 12l0 0c0,-1 0,-1 0,-2l0 0c0,1 0,1 0,2zm-1 1l-53 53c1,-2 1,-3 2,-4l47 -47c2,-1 3,-2 4,-2zm-164 163l-11 12c-1,0 -1,0 -1,0l10 -11c1,0 2,-1 2,-1z"/>
     <path class="fil1" d="M188 13l-56 56c1,-1 1,-2 2,-3l53 -53c0,-1 1,-1 1,-1 0,0 0,0 0,0l0 0c0,0 0,0 0,1zm-163 163l-12 12c-1,0 -1,0 -1,0l11 -12c1,0 1,0 2,0z"/>
     <path class="fil1" d="M188 14l-58 58c1,-1 1,-2 2,-3l56 -56c0,0 0,1 0,1zm-161 162l-13 12c0,0 -1,0 -1,0l12 -12c1,0 1,0 2,0z"/>
     <path class="fil1" d="M188 15l-60 60c1,-1 2,-2 2,-3l58 -58c0,0 0,1 0,1l0 0zm-159 160l-13 13 -1 0c0,0 0,0 -1,0l13 -12c0,-1 1,-1 2,-1z"/>
     <path class="fil1" d="M188 17l-61 62c0,-1 1,-3 1,-4l60 -60 0 2zm-157 158l-14 13 -1 0 13 -13c0,0 1,0 2,0z"/>
     <path class="fil1" d="M188 18l-63 64c1,-1 1,-2 2,-3l61 -62 0 1zm-155 156l-15 14 -1 0 14 -13c0,0 1,-1 2,-1z"/>
     <path class="fil1" d="M188 20l-64 65c0,-1 1,-2 1,-3l63 -64 0 2zm-154 154l-14 14 -2 0 15 -14c0,0 1,0 1,0z"/>
     <path class="fil1" d="M188 21l-66 66c1,0 1,-1 2,-2l64 -65 0 1zm-151 152l-16 15 -1 0 14 -14c1,-1 2,-1 3,-1z"/>
     <path class="fil1" d="M188 23l-67 67 1 -3 66 -66 0 2zm-149 149l-16 16 -2 0 16 -15c0,0 1,0 2,-1z"/>
     <path class="fil1" d="M188 24l-69 69 1 -1 1 -2 67 -67 0 1zm-147 148l-17 16 -1 0 16 -16c0,0 1,0 2,0z"/>
     <path class="fil1" d="M188 25l-70 71 1 -3 69 -69 0 1zm-145 146l-17 17 -2 0 17 -16c1,-1 1,-1 2,-1z"/>
     <path class="fil1" d="M188 27l-72 72c1,-1 1,-2 2,-3l70 -71 0 2zm-143 143l-18 18 -1 0 17 -17c1,0 2,-1 2,-1z"/>
     <path class="fil1" d="M188 28l-73 74c0,-1 1,-2 1,-3l72 -72 0 1zm-140 141l-20 19 -1 0 18 -18c1,0 2,-1 3,-1z"/>
     <path class="fil1" d="M188 30l-75 75c1,-1 1,-2 2,-3l73 -74 0 2zm-138 138l-20 20 -2 0 20 -19c1,0 1,-1 2,-1z"/>
     <path class="fil1" d="M188 31l-77 77c1,-1 1,-2 2,-3l75 -75 0 1zm-135 136l-22 21 -1 0 20 -20c1,0 2,-1 3,-1z"/>
     <path class="fil1" d="M188 33l-78 78c0,-1 1,-2 1,-3l77 -77 0 2zm-132 132l-23 23 -2 0 22 -21c1,-1 2,-1 3,-2z"/>
     <path class="fil1" d="M188 34l-80 81c0,-1 1,-2 2,-4l78 -78 0 1zm-129 130l-25 24 -1 0 23 -23c1,0 2,-1 3,-1z"/>
     <path class="fil1" d="M188 35l-82 83c0,-1 1,-2 2,-3l80 -81 0 1zm-126 127l-26 26 -2 0 25 -24c1,-1 2,-1 3,-2z"/>
     <path class="fil1" d="M188 37l-85 85c1,-1 2,-2 3,-4l82 -83 0 2zm-123 123l-28 28 -1 0 26 -26c1,-1 2,-1 3,-2z"/>
     <path class="fil1" d="M188 38l-88 88c1,-1 2,-2 3,-4l85 -85 0 1zm-118 119l-32 31 -1 0 28 -28c2,-1 3,-2 5,-3z"/>
     <path class="fil1" d="M188 40l-91 91c1,-1 2,-3 3,-5l88 -88 0 2zm-113 113l-35 35 -2 0 32 -31c1,-1 3,-2 5,-4z"/>
     <path class="fil1" d="M188 41l-99 100c2,-3 4,-5 7,-8 0,-1 0,-1 1,-2l91 -91 0 1zm-104 105l-43 42 -1 0 35 -35c3,-2 6,-5 9,-7z"/>
     <path class="fil1" d="M188 43l-145 145 -2 0 43 -42c2,-2 3,-4 5,-5l99 -100 0 2z"/>
     <polygon class="fil1" points="188,44 44,188 43,188 188,43 "/>
     <polygon class="fil1" points="188,45 46,188 44,188 188,44 "/>
     <polygon class="fil1" points="188,47 47,188 46,188 188,45 "/>
     <polygon class="fil1" points="188,48 48,188 47,188 188,47 "/>
     <polygon class="fil1" points="188,50 50,188 48,188 188,48 "/>
     <polygon class="fil1" points="188,51 51,188 50,188 188,50 "/>
     <polygon class="fil1" points="188,53 53,188 51,188 188,51 "/>
     <polygon class="fil1" points="188,54 54,188 53,188 188,53 "/>
     <polygon class="fil1" points="188,55 56,188 54,188 188,54 "/>
     <polygon class="fil1" points="188,57 57,188 56,188 188,55 "/>
     <polygon class="fil1" points="188,58 59,188 57,188 188,57 "/>
     <polygon class="fil1" points="188,60 60,188 59,188 188,58 "/>
     <polygon class="fil1" points="188,61 61,188 60,188 188,60 "/>
     <polygon class="fil1" points="188,63 63,188 61,188 188,61 "/>
     <polygon class="fil1" points="188,64 64,188 63,188 188,63 "/>
     <polygon class="fil1" points="188,66 66,188 64,188 188,64 "/>
     <polygon class="fil1" points="188,67 67,188 66,188 188,66 "/>
     <polygon class="fil1" points="188,68 69,188 67,188 188,67 "/>
     <polygon class="fil1" points="188,70 70,188 69,188 188,68 "/>
     <polygon class="fil1" points="188,71 71,188 70,188 188,70 "/>
     <polygon class="fil1" points="188,73 73,188 71,188 188,71 "/>
     <polygon class="fil1" points="188,74 74,188 73,188 188,73 "/>
     <polygon class="fil1" points="188,76 76,188 74,188 188,74 "/>
     <polygon class="fil1" points="188,77 77,188 76,188 188,76 "/>
     <polygon class="fil1" points="188,78 79,188 77,188 188,77 "/>
     <path class="fil1" d="M188 80l-9 9c-4,4 -8,7 -11,11l-88 88 -1 0 109 -110 0 2z"/>
     <path class="fil1" d="M188 81l-4 4c-1,2 -3,3 -5,4l9 -9 0 1zm-24 25l-83 82 -1 0 88 -88c-1,2 -3,4 -4,6z"/>
     <path class="fil1" d="M188 83l0 0c-1,1 -2,1 -4,2l4 -4 0 2zm-26 26l-79 79 -2 0 83 -82c-1,1 -1,2 -2,3 0,0 0,0 0,0z"/>
     <path class="fil1" d="M160 112l-76 76 -1 0 79 -79c-1,1 -1,2 -2,3zm28 -29l0 0 0 0 0 0z"/>
     <path class="fil1" d="M159 115l-73 73 -2 0 76 -76c0,1 -1,2 -1,3z"/>
     <path class="fil1" d="M158 118l-71 70 -1 0 73 -73c-1,1 -1,2 -1,3z"/>
     <path class="fil1" d="M157 120l-68 68 -2 0 71 -70c-1,1 -1,1 -1,2z"/>
     <path class="fil1" d="M156 123l-66 65 -1 0 68 -68c-1,1 -1,2 -1,3z"/>
     <path class="fil1" d="M155 125l-64 63 -1 0 66 -65c-1,0 -1,1 -1,2z"/>
     <path class="fil1" d="M154 127l-61 61 -2 0 64 -63c0,1 -1,1 -1,2z"/>
     <path class="fil1" d="M153 129l-59 59 -1 0 61 -61c0,1 0,2 -1,2z"/>
     <path class="fil1" d="M153 132l-57 56c0,0 -1,0 -1,0l0 0 -1 0 59 -59c0,1 0,2 0,3z"/>
     <path class="fil1" d="M152 134l-54 54c-1,0 -2,0 -2,0l57 -56 -1 2z"/>
     <path class="fil1" d="M151 136l-52 52c0,0 -1,0 -1,0l54 -54 0 0 -1 2z"/>
     <path class="fil1" d="M150 138l-49 49c-1,0 -1,1 -2,1l52 -52 -1 2z"/>
     <path class="fil1" d="M150 140l-47 47c-1,0 -1,0 -2,0l49 -49c0,1 0,2 0,2z"/>
     <path class="fil1" d="M149 142l-44 44c-1,1 -1,1 -2,1l47 -47c-1,1 -1,2 -1,2z"/>
     <path class="fil1" d="M148 145l-41 41c-1,0 -1,0 -2,0l44 -44c-1,1 -1,2 -1,3z"/>
     <path class="fil1" d="M147 147l-38 38c-1,0 -1,0 -2,1l41 -41c0,1 -1,1 -1,2z"/>
     <path class="fil1" d="M146 150l-35 34c0,0 -1,1 -2,1l38 -38c0,1 -1,2 -1,3z"/>
     <path class="fil1" d="M145 152l-31 31c-1,0 -2,1 -3,1l35 -34c0,0 -1,1 -1,2z"/>
     <path class="fil1" d="M144 155l-27 27c-1,0 -2,0 -3,1l31 -31c-1,1 -1,2 -1,3z"/>
     <path class="fil1" d="M142 158l-22 22c-1,0 -2,1 -3,2l27 -27c-1,1 -1,2 -2,2 0,1 0,1 0,1z"/>
     <path class="fil1" d="M139 162l-15 15c-1,1 -2,2 -4,3l22 -22c-1,1 -2,3 -3,4z"/>
     <path class="fil1" d="M124 177l15 -15c-4,6 -9,11 -15,15z"/>
     <g style="clip-path:url(#id0)">
      <image transform="matrix(0.375434 -0 -0 -0.375434 -0.866417 173.795)" x="0" y="0" width="468" height="466" xlink:href="logo_login_Images\logo_login_ImgID1.png"/>
     </g>
     <path class="fil1" d="M102 3l-3 3c1,-1 2,-2 3,-3zm-96 96l-3 3c1,-1 2,-2 3,-3z"/>
     <path class="fil1" d="M105 1l-8 8c1,-1 1,-2 2,-3l3 -3c1,-1 2,-1 3,-2zm-96 96l-8 8c1,-1 2,-2 2,-3l3 -3c1,-1 2,-2 3,-2z"/>
     <path class="fil1" d="M107 0l-11 11c1,0 1,-1 1,-2l8 -8c1,0 2,0 2,-1zm-95 96l-11 11c0,0 0,-1 0,-2l8 -8c1,0 2,-1 3,-1z"/>
     <path class="fil1" d="M109 0l-13 13c0,0 0,-1 0,-2l11 -11c1,0 2,0 2,0zm-96 96l-13 13c0,-1 0,-1 1,-2l11 -11c0,0 1,0 1,0z"/>
     <path class="fil1" d="M111 0l-15 15c0,-1 0,-1 0,-2l13 -13c1,0 1,0 2,0zm-96 96l-15 15c0,-1 0,-1 0,-2l13 -13c1,0 1,0 2,0z"/>
     <path class="fil1" d="M112 0l-16 16 0 -1c0,0 0,0 0,0l15 -15c0,0 0,0 0,0l1 0zm-96 96l-16 16 0 -1c0,0 0,0 0,0l15 -15c0,0 0,0 0,0l1 0z"/>
     <path class="fil1" d="M114 0l-18 18 0 -2 16 -16 2 0zm-96 96l-18 17 0 -1 16 -16 2 0z"/>
     <path class="fil1" d="M115 0l-19 19 0 -1 18 -18 1 0zm-96 96l-19 19 0 -2 18 -17 1 0z"/>
     <path class="fil1" d="M117 0l-21 21 0 -2 19 -19 2 0zm-96 96l-21 20 0 -1 19 -19 2 0z"/>
     <path class="fil1" d="M118 0l-22 22 0 -1 21 -21 1 0zm-96 96l-22 22 0 -2 21 -20 1 0z"/>
     <path class="fil1" d="M119 0l-23 23 0 -1 22 -22 1 0zm-95 96l-24 23 0 -1 22 -22 2 0z"/>
     <path class="fil1" d="M121 0l-25 25 0 -2 23 -23 2 0zm-96 96l-25 25 0 -2 24 -23 1 0z"/>
     <path class="fil1" d="M122 0l-26 26 0 -1 25 -25 1 0zm-96 96l-26 26 0 -1 25 -25 1 0z"/>
     <path class="fil1" d="M124 0l-28 28 0 -2 26 -26 2 0zm-96 96l-28 28 0 -2 26 -26 2 0z"/>
     <path class="fil1" d="M125 0l-29 29 0 -1 28 -28 1 0zm-96 96l-29 29 0 -1 28 -28 1 0z"/>
     <path class="fil1" d="M127 0l-31 31 0 -2 29 -29 2 0zm-96 96l-31 30 0 -1 29 -29 2 0z"/>
     <path class="fil1" d="M128 0l-32 32 0 -1 31 -31 1 0zm-96 96l-32 32 0 -2 31 -30 1 0z"/>
     <path class="fil1" d="M129 0l-33 33 0 -1 32 -32 1 0zm-95 96l-34 33 0 -1 32 -32 2 0z"/>
     <path class="fil1" d="M131 0l-35 35 0 -2 33 -33 2 0zm-96 96l-35 35 0 -2 34 -33 1 0z"/>
     <path class="fil1" d="M132 0l-36 36 0 -1 35 -35 1 0zm-96 96l-36 36 0 -1 35 -35 1 0z"/>
     <path class="fil1" d="M134 0l-38 38 0 -2 36 -36 2 0zm-96 96l-38 38 0 -2 36 -36 2 0z"/>
     <path class="fil1" d="M135 0l-39 39 0 -1 38 -38 1 0zm-96 96l-39 39 0 -1 38 -38 1 0z"/>
     <path class="fil1" d="M137 0l-41 41 0 -2 39 -39 2 0zm-96 96l-41 40 0 -1 39 -39 2 0z"/>
     <path class="fil1" d="M138 0l-42 42 0 -1 41 -41 1 0zm-96 96l-42 42 0 -2 41 -40 1 0z"/>
     <path class="fil1" d="M139 0l-43 43 0 -1 42 -42 1 0zm-95 96l-44 43 0 -1 42 -42 2 0z"/>
     <path class="fil1" d="M141 0l-45 45 0 -2 43 -43 2 0zm-96 96l-45 45 0 -2 44 -43 1 0z"/>
     <path class="fil1" d="M142 0l-46 46 0 -1 45 -45 1 0zm-95 96l-47 46 0 -1 45 -45 2 0z"/>
     <path class="fil1" d="M144 0l-48 48 0 -2 46 -46 2 0zm-96 96l-48 48 0 -2 47 -46 1 0z"/>
     <path class="fil1" d="M145 0l-49 49 0 -1 48 -48 1 0zm-96 96l-49 49 0 -1 48 -48 1 0z"/>
     <path class="fil1" d="M147 0l-51 51 0 -2 49 -49 2 0zm-96 96l-51 50 0 -1 49 -49 2 0z"/>
     <path class="fil1" d="M148 0l-52 52 0 -1 51 -51 1 0zm-96 96l-52 52 0 -2 51 -50 1 0z"/>
     <path class="fil1" d="M149 0l-53 54 0 -2 52 -52 1 0zm-95 96l-54 53 0 -1 52 -52 2 0z"/>
     <path class="fil1" d="M151 0l-55 55 0 -1 53 -54 2 0zm-96 96l-55 55 0 -2 54 -53 1 0z"/>
     <path class="fil1" d="M152 0l-56 56 0 -1 55 -55 1 0zm-95 96l-57 56 0 -1 55 -55 2 0z"/>
     <path class="fil1" d="M154 0l-58 58 0 -2 56 -56 2 0zm-96 96l-58 58 0 -2 57 -56 1 0z"/>
     <path class="fil1" d="M155 0l-59 59 0 -1 58 -58 1 0zm-96 96l-59 59 0 -1 58 -58 1 0z"/>
     <path class="fil1" d="M157 0l-61 61 0 -2 59 -59 2 0zm-96 96l-61 60 0 -1 59 -59 2 0z"/>
     <path class="fil1" d="M158 0l-62 62 0 -1 61 -61 1 0zm-96 96l-62 62 0 -2 61 -60 1 0z"/>
     <path class="fil1" d="M160 0l-64 64 0 -2 62 -62 2 0zm-96 96l-64 63 0 -1 62 -62 2 0z"/>
     <path class="fil1" d="M161 0l-65 65 0 -1 64 -64 1 0zm-96 96l-65 65 0 -2 64 -63 1 0z"/>
     <path class="fil1" d="M162 0l-66 66 0 -1 65 -65 1 0zm-95 96l-67 66 0 -1 65 -65 2 0z"/>
     <path class="fil1" d="M164 0l-68 68 0 -2 66 -66 2 0zm-96 96l-68 68 0 -2 67 -66 1 0z"/>
     <path class="fil1" d="M165 0l-69 69 0 -1 68 -68 1 0zm-96 96l-69 69 0 -1 68 -68 1 0z"/>
     <path class="fil1" d="M167 0l-71 71 0 -2 69 -69 2 0zm-96 96l-71 71 0 -2 69 -69 2 0z"/>
     <path class="fil1" d="M168 0l-72 72 0 -1 71 -71 1 0zm-96 96l-72 72 0 -1 71 -71 1 0z"/>
     <path class="fil1" d="M170 0l-74 74 0 -2 72 -72 2 0zm-96 96l-74 73 0 -1 72 -72 2 0z"/>
     <path class="fil1" d="M171 0l-75 75 0 -1 74 -74 1 0zm-96 96l-75 75 0 -2 74 -73 1 0z"/>
     <path class="fil1" d="M172 0l-76 76 0 -1 75 -75 1 0zm-95 96l-77 76 0 -1 75 -75 2 0z"/>
     <path class="fil1" d="M174 0l-78 78 0 -2 76 -76 1 0c0,0 0,0 0,0 0,0 0,0 0,0 0,0 0,0 0,0 0,0 0,0 0,0 0,0 0,0 0,0 0,0 0,0 0,0 0,0 0,0 0,0 0,0 0,0 0,0 0,0 0,0 0,0 0,0 0,0 0,0 0,0 0,0 0,0 0,0 0,0 0,0 0,0 0,0 0,0 0,0 0,0 0,0 0,0 0,0 0,0 0,0 0,0 0,0 0,0 0,0 0,0 0,0 0,0 0,0 0,0 1,0 1,0 0,0 0,0 0,0 0,0 0,0 0,0 0,0 0,0 0,0 0,0 0,0 0,0 0,0 0,0 0,0 0,0 0,0 0,0l0 0zm-96 96l-78 78c0,-1 0,-1 0,-1l0 0c0,0 0,0 0,0 0,0 0,0 0,0l0 -1 77 -76 1 0z"/>
     <path class="fil1" d="M175 0l-79 79 0 -1 78 -78 0 0c0,0 1,0 1,0zm-96 96l-79 79c0,0 0,-1 0,-1l78 -78 1 0z"/>
     <path class="fil1" d="M176 0l-80 81 0 -2 79 -79c1,0 1,0 1,0zm-95 96l-81 80c0,0 0,-1 0,-1l79 -79 2 0z"/>
     <path class="fil1" d="M177 1l-81 81 0 -1 80 -81c1,0 1,0 1,1zm-95 95l-81 81c0,0 0,0 -1,-1l81 -80 1 0z"/>
     <path class="fil1" d="M179 1l-83 83 0 -2 81 -81c1,0 1,0 2,0zm-95 95l-83 82 0 0c0,0 0,0 0,-1l81 -81 2 0z"/>
     <path class="fil1" d="M180 1l-84 84 0 -1 83 -83c0,0 0,0 1,0zm-95 95l-82 82c-1,0 -1,0 -2,0l0 0 83 -82 1 0z"/>
     <path class="fil1" d="M180 2l-84 84 0 -1 84 -84c0,1 0,1 0,1zm-93 94l-83 82c0,0 -1,0 -1,0l82 -82 2 0z"/>
     <path class="fil1" d="M181 2l-85 86 0 -2 84 -84c1,0 1,0 1,0zm-93 94l-83 82c0,0 -1,0 -1,0l83 -82 1 0z"/>
     <path class="fil1" d="M182 3l-86 86 0 -1 85 -86c1,1 1,1 1,1zm-93 93l-82 82c-1,0 -1,0 -2,0l83 -82 1 0z"/>
     <path class="fil1" d="M183 4l-87 87 0 -2 86 -86c1,0 1,0 1,1zm-92 92l-83 82c0,0 -1,0 -1,0l82 -82 2 0z"/>
     <path class="fil1" d="M184 4l-88 88 0 -1 87 -87c0,0 1,0 1,0zm-92 92l-82 82c0,0 -1,0 -2,0l83 -82 1 0z"/>
     <path class="fil1" d="M184 5l-88 89 0 -2 88 -88c0,1 0,1 0,1zm-90 91l-82 82c-1,0 -1,0 -2,0l82 -82 2 0z"/>
     <path class="fil1" d="M185 6l-89 89 0 -1 88 -89c1,0 1,1 1,1zm-90 90l-82 82c0,0 -1,0 -1,0l82 -82 1 0z"/>
     <path class="fil1" d="M186 7l-25 24c-3,3 -5,6 -8,8l-138 139c-1,0 -1,0 -2,0l82 -82 1 0 0 -1 89 -89c0,0 1,0 1,1z"/>
     <path class="fil1" d="M186 7l-16 17c-3,2 -6,5 -9,7l25 -24c0,0 0,0 0,0zm-40 41l-130 129c0,0 -1,1 -1,1l138 -139c-2,3 -4,5 -6,7 0,1 -1,2 -1,2z"/>
     <path class="fil1" d="M187 8l-12 12c-1,1 -3,2 -5,4l16 -17c0,1 1,1 1,1zm-45 46l-124 123c0,0 -1,0 -2,0l130 -129c-2,2 -3,4 -4,6z"/>
     <path class="fil1" d="M187 9l-7 8c-2,1 -3,2 -5,3l12 -12c0,1 0,1 0,1zm-48 49l-119 119c-1,0 -1,0 -2,0l124 -123c-1,1 -2,3 -3,4z"/>
     <path class="fil1" d="M188 10l-5 5c-1,0 -2,1 -3,2l7 -8c0,1 1,1 1,1zm-52 52l-115 115c0,0 -1,0 -1,0l119 -119c-1,1 -2,3 -3,4z"/>
     <path class="fil1" d="M188 12l-1 1c-1,0 -2,1 -4,2l5 -5c0,1 0,1 0,2zm-54 54l-111 110c0,0 -1,1 -2,1l115 -115c-1,1 -1,2 -2,4z"/>
     <path class="fil1" d="M132 69l-107 107c-1,0 -1,0 -2,0l111 -110c-1,1 -1,2 -2,3zm55 -56l1 -1c0,0 0,0 0,0 0,0 -1,0 -1,1z"/>
     <path class="fil1" d="M130 72l-103 104c-1,0 -1,0 -2,0l107 -107c-1,1 -1,2 -2,3z"/>
     <path class="fil1" d="M128 75l-99 100c-1,0 -2,0 -2,1l103 -104c0,1 -1,2 -2,3z"/>
     <path class="fil1" d="M127 79l-96 96c-1,0 -2,0 -2,0l99 -100c0,1 -1,3 -1,4z"/>
     <path class="fil1" d="M125 82l-92 92c-1,0 -2,1 -2,1l96 -96c-1,1 -1,2 -2,3z"/>
     <path class="fil1" d="M124 85l-90 89c0,0 -1,0 -1,0l92 -92c0,1 -1,2 -1,3z"/>
     <path class="fil1" d="M122 87l-85 86c-1,0 -2,0 -3,1l90 -89c-1,1 -1,2 -2,2z"/>
     <path class="fil1" d="M121 90l-82 82c-1,1 -2,1 -2,1l85 -86 -1 3z"/>
     <path class="fil1" d="M119 93l-78 79c-1,0 -2,0 -2,0l82 -82 -1 2 -1 1z"/>
     <path class="fil1" d="M118 96l-75 75c-1,0 -1,0 -2,1l78 -79 -1 3z"/>
     <path class="fil1" d="M116 99l-71 71c0,0 -1,1 -2,1l75 -75c-1,1 -1,2 -2,3z"/>
     <path class="fil1" d="M115 102l-67 67c-1,0 -2,1 -3,1l71 -71c0,1 -1,2 -1,3z"/>
     <path class="fil1" d="M113 105l-63 63c-1,0 -1,1 -2,1l67 -67c-1,1 -1,2 -2,3z"/>
     <path class="fil1" d="M111 108l-58 59c-1,0 -2,1 -3,1l63 -63c-1,1 -1,2 -2,3z"/>
     <path class="fil1" d="M110 111l-54 54c-1,1 -2,1 -3,2l58 -59c0,1 -1,2 -1,3z"/>
     <path class="fil1" d="M108 115l-49 49c-1,0 -2,1 -3,1l54 -54c-1,2 -2,3 -2,4z"/>
     <path class="fil1" d="M106 118l-44 44c-1,1 -2,1 -3,2l49 -49c-1,1 -2,2 -2,3z"/>
     <path class="fil1" d="M103 122l-38 38c-1,1 -2,1 -3,2l44 -44c-1,2 -2,3 -3,4z"/>
     <path class="fil1" d="M100 126l-30 31c-2,1 -3,2 -5,3l38 -38c-1,2 -2,3 -3,4z"/>
     <path class="fil1" d="M97 131l-22 22c-2,2 -4,3 -5,4l30 -31c-1,2 -2,4 -3,5z"/>
     <path class="fil1" d="M89 141l-5 5c-3,2 -6,5 -9,7l22 -22c-1,1 -1,1 -1,2 -3,3 -5,5 -7,8z"/>
     <path class="fil1" d="M84 146l5 -5c-2,1 -3,3 -5,5z"/>
    </g>
   </g>
   <path class="fil2" d="M397 266l0 -248 80 0c31,0 50,1 60,4 14,4 26,12 35,24 10,13 15,29 15,48 0,16 -3,28 -9,39 -5,10 -12,18 -21,24 -8,6 -17,10 -25,12 -12,2 -30,3 -52,3l-33 0 0 94 -50 0zm50 -206l0 71 28 0c19,0 32,-2 39,-4 7,-3 12,-7 16,-13 3,-5 5,-11 5,-19 0,-9 -2,-16 -8,-22 -5,-6 -12,-10 -20,-11 -6,-1 -18,-2 -36,-2l-24 0zm181 206l0 -248 183 0 0 42 -133 0 0 55 124 0 0 42 -124 0 0 67 138 0 0 42 -188 0zm230 0l0 -248 106 0c26,0 45,2 57,7 12,4 22,12 29,24 7,11 11,24 11,39 0,18 -6,34 -16,46 -11,12 -28,19 -49,23 11,6 19,13 26,20 7,8 17,21 29,40l30 49 -60 0 -36 -54c-12,-19 -21,-32 -26,-37 -5,-5 -10,-8 -15,-10 -5,-2 -14,-3 -25,-3l-11 0 0 104 -50 0zm50 -143l37 0c24,0 39,-1 45,-3 6,-2 11,-6 14,-11 4,-5 5,-11 5,-18 0,-9 -2,-15 -6,-20 -5,-6 -11,-9 -19,-10 -4,-1 -16,-1 -37,-1l-39 0 0 63zm187 63l49 -5c3,16 8,28 17,36 9,7 21,11 36,11 16,0 29,-3 37,-10 8,-7 12,-15 12,-24 0,-6 -2,-11 -5,-15 -4,-4 -10,-8 -18,-11 -6,-2 -19,-5 -40,-10 -27,-7 -45,-15 -56,-25 -15,-14 -23,-30 -23,-50 0,-13 4,-24 11,-35 7,-11 17,-20 31,-26 13,-5 29,-8 48,-8 31,0 54,7 70,20 16,14 24,32 25,55l-50 2c-2,-13 -7,-22 -14,-27 -7,-6 -17,-9 -31,-9 -15,0 -26,3 -34,9 -5,4 -8,9 -8,16 0,6 2,11 7,15 7,5 22,11 46,16 24,6 42,12 54,18 12,6 21,15 27,25 7,11 10,24 10,40 0,14 -4,27 -12,40 -8,12 -19,21 -33,27 -15,6 -33,9 -54,9 -31,0 -55,-7 -72,-21 -17,-15 -27,-36 -30,-63zm242 80l0 -248 50 0 0 248 -50 0z"/>
  </g>
 </g>
</svg>
