<?xml version="1.0" encoding="UTF-8"?>
<!DOCTYPE svg PUBLIC "-//W3C//DTD SVG 1.1//EN" "http://www.w3.org/Graphics/SVG/1.1/DTD/svg11.dtd">
<!-- Creator: CorelDRAW X7 -->
<svg xmlns="http://www.w3.org/2000/svg" xml:space="preserve" width="1400px" height="1400px" version="1.1" style="shape-rendering:geometricPrecision; text-rendering:geometricPrecision; image-rendering:optimizeQuality; fill-rule:evenodd; clip-rule:evenodd"
viewBox="0 0 1400 1400"
 xmlns:xlink="http://www.w3.org/1999/xlink">
 <defs>
  <style type="text/css">
   <![CDATA[
    .fil1 {fill:#D083FF}
    .fil0 {fill:#D285FF;fill-opacity:0.600000}
    .fil2 {fill:url(#id1);fill-rule:nonzero}
   ]]>
  </style>
      <clipPath id="id0">
       <path d="M-2485 850c0,0 0,0 0,0l0 0zm0 0c0,0 0,0 0,0l0 0c0,0 0,0 0,0l0 0zm819 -815c0,0 0,0 0,0l0 0zm0 0c-1,0 -1,0 -1,0 0,0 0,0 1,0l0 0zm-1 0c0,0 -1,0 -1,0 0,0 1,0 1,0l0 0zm-1 0c0,0 0,0 0,0 0,0 0,0 0,0zm0 0c0,0 0,0 0,0 0,0 0,0 0,0l0 0zm0 0c0,0 0,0 0,0 0,0 0,0 0,0l0 0zm0 0c0,0 0,0 0,0 0,0 0,0 0,0l0 0zm-1 0c0,0 0,0 0,0 0,0 0,0 0,0zm0 0c0,0 0,0 0,0 0,0 0,0 0,0l0 0zm0 0c0,0 0,0 0,0 0,0 0,0 0,0zm0 0c0,0 0,0 0,0 0,0 0,0 0,0l0 0zm0 0c-1,0 -1,0 -1,0 0,0 0,0 1,0l0 0zm-1 0c0,0 0,0 0,0 0,0 0,0 0,0l0 0zm0 0c0,0 0,0 0,0 0,0 0,0 0,0l0 0z"/>
      </clipPath>
  <linearGradient id="id1" gradientUnits="userSpaceOnUse" x1="3957.08" y1="704.384" x2="-520.309" y2="704.384">
   <stop offset="0" style="stop-opacity:1; stop-color:#9F59FF"/>
   <stop offset="0.54902" style="stop-opacity:0.619608; stop-color:#B76EFF"/>
   <stop offset="1" style="stop-opacity:0.619608; stop-color:#D083FF"/>
  </linearGradient>
 </defs>
 <g id="Layer_x0020_1">
  <metadata id="CorelCorpID_0Corel-Layer"/>
  <g id="_783414688">
   <g>
    <path class="fil0" d="M-1197 489l-399 0c-113,22 -146,508 -437,485l4 351c11,27 35,42 69,49l308 -2c27,-7 45,-28 55,-59l8 -390 389 -3c26,-7 44,-27 54,-59 11,-31 13,-302 -3,-328 -6,-21 -21,-37 -48,-44z"/>
    <g>
     <path class="fil1" d="M-2485 854c0,-2 0,-3 0,-4 0,1 0,2 0,4zm0 -4c0,0 0,0 0,0 0,0 0,0 0,0zm819 -815l0 0 0 0zm-1 0c0,0 0,0 0,0 0,0 0,0 0,0l0 0zm-1 0c0,0 0,0 0,0 0,0 0,0 0,0zm0 0c0,0 0,0 0,0 0,0 0,0 0,0zm0 0c0,0 0,0 0,0 0,0 0,0 0,0l0 0zm0 0c0,0 0,0 0,0 0,0 0,0 0,0l0 0zm0 0c0,0 0,0 -1,0 1,0 1,0 1,0l0 0zm-1 0c0,0 0,0 0,0 0,0 0,0 0,0zm0 0c0,0 0,0 0,0 0,0 0,0 0,0zm0 0c0,0 0,0 0,0 0,0 0,0 0,0l0 0zm0 0c0,0 0,0 0,0 0,0 0,0 0,0l0 0zm-1 0c0,0 0,0 0,0 0,0 0,0 0,0l0 0zm0 0c0,0 0,0 0,0 0,0 0,0 0,0l0 0z"/>
     <path class="fil1" d="M-1660 35l0 0c-2,0 -4,0 -6,0 2,0 4,0 6,0zm-825 825l0 0c0,-2 0,-4 0,-6 0,2 0,4 0,6zm819 -825l0 0 0 0 0 0z"/>
     <path class="fil1" d="M-2483 865l-1 0c0,-1 0,-3 -1,-5l0 0c1,2 1,4 2,5zm823 -830l0 0c2,1 4,1 5,1 -1,0 -3,0 -5,-1z"/>
     <path class="fil1" d="M-1649 38l0 0c-2,-1 -4,-1 -6,-2 2,1 4,1 6,2zm-833 833l0 0c-1,-2 -1,-4 -2,-6l1 0c0,2 0,4 1,6z"/>
     <path class="fil1" d="M-1644 40l0 0c-2,-1 -3,-2 -5,-2l0 0c2,0 3,1 5,2zm-836 836l0 0c-1,-2 -2,-3 -2,-5l0 0c0,1 1,3 2,5l0 0z"/>
     <path class="fil1" d="M-1639 42l0 0c-2,-1 -4,-2 -5,-2l0 0c1,0 3,1 5,2zm-835 834l-4 5c-1,-2 -2,-4 -2,-5l0 0 1 0c2,0 4,0 5,0z"/>
     <path class="fil1" d="M-1635 44l0 0c-1,-1 -3,-2 -4,-2l0 0c1,0 3,1 4,2zm-832 832l-9 9c-1,-1 -2,-3 -2,-4l4 -5c3,0 5,0 7,0z"/>
     <path class="fil1" d="M-1631 46l0 0c-1,0 -2,-1 -4,-2l0 0c2,1 3,2 4,2zm-829 829l-14 14c0,-1 -1,-3 -2,-4l9 -9c3,0 5,-1 7,-1z"/>
     <path class="fil1" d="M-1627 49l0 0c-1,-1 -2,-2 -4,-3l0 0c2,1 3,2 4,3zm-826 826l-18 18c-1,-1 -2,-2 -3,-4l14 -14c3,0 5,0 7,0z"/>
     <path class="fil1" d="M-1623 52l0 0c-1,-1 -2,-2 -4,-3l0 0c2,1 3,2 4,3zm-823 823l-22 22c-1,-1 -2,-2 -3,-4l18 -18c3,0 5,0 7,0z"/>
     <path class="fil1" d="M-1619 55l0 0c-2,-1 -3,-2 -4,-3l0 0c1,1 2,2 4,3zm-819 819l-27 27c-1,-2 -2,-3 -3,-4l22 -22c3,0 5,-1 8,-1z"/>
     <path class="fil1" d="M-1616 59l0 0c-1,-1 -2,-2 -3,-4l0 0c1,1 2,3 3,4zm-815 815l-30 30c-1,-1 -2,-2 -4,-3l27 -27c2,0 5,0 7,0z"/>
     <path class="fil1" d="M-1613 62l0 1c-1,-2 -2,-3 -3,-4l0 0c1,1 2,2 3,3zm-810 811l-34 34c-2,-1 -3,-2 -4,-3l30 -30c3,-1 5,-1 8,-1z"/>
     <path class="fil1" d="M-1610 66l0 0c-1,-1 -2,-2 -3,-3l0 -1c1,2 2,3 3,4zm-117 117l-38 38c12,-13 25,-26 38,-38zm-689 689l-38 38c-1,-1 -2,-2 -3,-3l34 -34c2,0 5,-1 7,-1z"/>
     <path class="fil1" d="M-1608 70l0 1c0,-2 -1,-3 -2,-5l0 0c1,2 2,3 2,4zm-76 77l-116 116c3,-4 5,-7 8,-10 9,-11 18,-22 27,-32l38 -38c14,-13 28,-25 43,-36zm-724 724l-41 41c-2,0 -3,-1 -5,-2l38 -38c3,0 5,0 8,-1z"/>
     <path class="fil1" d="M-1605 75l0 0c-1,-2 -2,-3 -3,-4l0 -1c1,2 2,3 3,5zm-54 54l-159 159c6,-9 12,-17 18,-25l116 -116c8,-6 16,-12 25,-18zm-741 741l-45 45c-2,-1 -3,-2 -4,-3l41 -41c2,0 5,-1 8,-1z"/>
     <path class="fil1" d="M-1603 79l0 1c-1,-2 -1,-4 -2,-5l0 0c1,1 1,3 2,4zm-36 36l-193 194c4,-7 9,-14 14,-21l159 -159c7,-5 13,-9 20,-14zm-753 754l-48 48c-2,-1 -4,-1 -5,-2l45 -45c2,0 5,-1 8,-1z"/>
     <path class="fil1" d="M-1601 84l0 0c-1,-1 -1,-3 -2,-4l0 -1c1,2 1,4 2,5zm-20 20l-223 223c4,-6 8,-12 12,-18l193 -194c6,-4 12,-7 18,-11zm-763 764l-52 51c-1,-1 -3,-1 -4,-2l48 -48c2,-1 5,-1 8,-1z"/>
     <path class="fil1" d="M-1600 90l0 0c0,-2 -1,-4 -1,-6l0 0c0,2 1,4 1,6zm-5 5l-249 249c3,-5 7,-11 10,-17l223 -223c5,-3 11,-6 16,-9zm-771 771l-54 54c-2,0 -4,-1 -6,-1l52 -51c2,-1 5,-1 8,-2z"/>
     <path class="fil1" d="M-1598 95l-266 265c3,-5 6,-10 10,-16l249 -249c2,-1 4,-2 6,-3 0,-1 -1,-2 -1,-2l0 0c1,1 1,3 2,5zm-770 769l-57 58c-2,-1 -4,-1 -5,-2l54 -54c3,0 5,-1 8,-2z"/>
     <path class="fil1" d="M-1598 101l-274 275c2,-5 5,-10 8,-16l266 -265c0,2 0,4 0,6zm-761 762l-60 59c-2,0 -4,0 -6,0l57 -58c3,0 6,-1 9,-1z"/>
     <path class="fil1" d="M-1597 108l-284 283c3,-5 6,-10 9,-15l274 -275c0,2 1,4 1,6l0 1zm-753 753l-62 62 0 0c-3,0 -5,-1 -7,-1l60 -59c3,-1 6,-2 9,-2z"/>
     <path class="fil1" d="M-1597 114l-291 291c2,-4 5,-9 7,-14l284 -283 0 6zm-744 744l-65 65 -6 0 62 -62c3,-1 6,-2 9,-3z"/>
     <path class="fil1" d="M-1597 121l-299 299c3,-5 5,-10 8,-15l291 -291 0 7zm-735 735l-67 67 -7 0 65 -65c3,0 6,-1 9,-2z"/>
     <path class="fil1" d="M-1597 128l-306 306c2,-5 5,-10 7,-14l299 -299 0 7zm-726 725l-69 70 -7 0 67 -67c3,-1 6,-2 9,-3z"/>
     <path class="fil1" d="M-1597 135l-313 312c2,-4 4,-9 7,-13l306 -306 0 7zm-716 716l-72 72 -7 0 69 -70c3,0 6,-1 10,-2z"/>
     <path class="fil1" d="M-1597 141l-320 320 7 -14 313 -312 0 6zm-706 706l-76 76 -6 0 72 -72c3,-1 6,-2 10,-4z"/>
     <path class="fil1" d="M-1597 148l-327 327 4 -7 3 -7 320 -320 0 7zm-696 696l-79 79 -7 0 76 -76c3,-1 6,-2 10,-3z"/>
     <path class="fil1" d="M-1597 155l-334 334 7 -14 327 -327 0 7zm-686 685l-82 83 -7 0 79 -79c3,-1 7,-2 10,-4z"/>
     <path class="fil1" d="M-1597 162l-341 341c2,-5 4,-10 7,-14l334 -334 0 7zm-675 674l-86 87 -7 0 82 -83c4,-1 8,-2 11,-4z"/>
     <path class="fil1" d="M-1597 168l-349 349c3,-5 5,-10 8,-14l341 -341 0 6zm-664 664l-91 91 -6 0 86 -87c4,-1 8,-3 11,-4z"/>
     <path class="fil1" d="M-1597 175l-356 356c2,-5 5,-10 7,-14l349 -349 0 7zm-652 651l-96 97 -7 0 91 -91c4,-2 8,-4 12,-6z"/>
     <path class="fil1" d="M-1597 182l-364 363c3,-4 5,-9 8,-14l356 -356 0 7zm-639 639l-102 102 -7 0 96 -97c4,-1 9,-3 13,-5z"/>
     <path class="fil1" d="M-1597 189l-372 372c3,-5 5,-10 8,-16l364 -363 0 7zm-626 625l-108 109 -7 0 102 -102c4,-2 9,-4 13,-7z"/>
     <path class="fil1" d="M-1597 195l-381 381c3,-5 6,-10 9,-15l372 -372 0 6zm-612 612l-116 116 -6 0 108 -109c5,-2 9,-4 14,-7z"/>
     <path class="fil1" d="M-1597 202l-391 391c3,-6 7,-11 10,-17l381 -381 0 7zm-597 597l-124 124 -7 0 116 -116c5,-3 10,-6 15,-8z"/>
     <path class="fil1" d="M-1597 209l-402 402c4,-6 7,-12 11,-18l391 -391 0 7zm-580 579l-134 135 -7 0 124 -124c6,-4 11,-7 17,-11z"/>
     <path class="fil1" d="M-1597 216l-415 415c4,-7 9,-14 13,-20l402 -402 0 7zm-561 560l-146 147 -7 0 134 -135c7,-4 13,-8 19,-12z"/>
     <path class="fil1" d="M-1597 222l-433 433c6,-8 12,-16 18,-24l415 -415 0 6zm-536 536l-165 165 -6 0 146 -147c9,-6 17,-12 25,-18z"/>
     <path class="fil1" d="M-1597 229l-469 469c11,-11 21,-24 31,-36 2,-2 3,-5 5,-7l433 -433 0 7zm-492 492l-202 202 -7 0 165 -165c15,-11 30,-24 44,-37z"/>
     <path class="fil1" d="M-1597 236l-687 687 -7 0 202 -202c8,-7 15,-15 23,-23l469 -469 0 7z"/>
     <polygon class="fil1" points="-1597,243 -2277,923 -2284,923 -1597,236 "/>
     <polygon class="fil1" points="-1597,249 -2271,923 -2277,923 -1597,243 "/>
     <polygon class="fil1" points="-1597,256 -2264,923 -2271,923 -1597,249 "/>
     <polygon class="fil1" points="-1597,263 -2257,923 -2264,923 -1597,256 "/>
     <polygon class="fil1" points="-1597,270 -2250,923 -2257,923 -1597,263 "/>
     <polygon class="fil1" points="-1597,276 -2244,923 -2250,923 -1597,270 "/>
     <polygon class="fil1" points="-1597,283 -2237,923 -2244,923 -1597,276 "/>
     <polygon class="fil1" points="-1597,290 -2230,923 -2237,923 -1597,283 "/>
     <polygon class="fil1" points="-1597,297 -2223,923 -2230,923 -1597,290 "/>
     <polygon class="fil1" points="-1597,303 -2217,923 -2223,923 -1597,297 "/>
     <polygon class="fil1" points="-1597,310 -2210,923 -2217,923 -1597,303 "/>
     <polygon class="fil1" points="-1597,317 -2203,923 -2210,923 -1597,310 "/>
     <polygon class="fil1" points="-1597,324 -2196,923 -2203,923 -1597,317 "/>
     <polygon class="fil1" points="-1597,330 -2190,923 -2196,923 -1597,324 "/>
     <polygon class="fil1" points="-1597,337 -2183,923 -2190,923 -1597,330 "/>
     <polygon class="fil1" points="-1597,344 -2176,923 -2183,923 -1597,337 "/>
     <polygon class="fil1" points="-1597,351 -2169,923 -2176,923 -1597,344 "/>
     <polygon class="fil1" points="-1597,357 -2162,923 -2169,923 -1597,351 "/>
     <polygon class="fil1" points="-1597,364 -2156,923 -2162,923 -1597,357 "/>
     <polygon class="fil1" points="-1597,371 -2149,923 -2156,923 -1597,364 "/>
     <polygon class="fil1" points="-1597,378 -2142,923 -2149,923 -1597,371 "/>
     <polygon class="fil1" points="-1597,385 -2135,923 -2142,923 -1597,378 "/>
     <polygon class="fil1" points="-1597,391 -2129,923 -2135,923 -1597,385 "/>
     <polygon class="fil1" points="-1597,398 -2122,923 -2129,923 -1597,391 "/>
     <polygon class="fil1" points="-1597,405 -2115,923 -2122,923 -1597,398 "/>
     <path class="fil1" d="M-1597 412l-45 44c-19,15 -37,33 -52,52l-414 415 -7 0 518 -518 0 7z"/>
     <path class="fil1" d="M-1597 418l-19 19c-9,6 -17,12 -26,19l45 -44 0 6zm-115 115l-390 390 -6 0 414 -415c-7,8 -12,16 -18,25z"/>
     <path class="fil1" d="M-1597 425l-1 1c-7,4 -13,7 -18,11l19 -19 0 7zm-126 125l-372 373 -7 0 390 -390c-3,5 -6,9 -9,14 -1,1 -1,2 -2,3z"/>
     <path class="fil1" d="M-1731 565l-357 358 -7 0 372 -373c-2,5 -5,10 -8,15zm133 -139l1 -1 0 0 -1 1z"/>
     <path class="fil1" d="M-1737 578l-344 345 -7 0 357 -358c-2,4 -4,9 -6,13z"/>
     <path class="fil1" d="M-1743 590l-332 333 -6 0 344 -345c-2,4 -4,8 -6,12z"/>
     <path class="fil1" d="M-1747 602l-321 321 -7 0 332 -333c-1,4 -3,8 -4,12z"/>
     <path class="fil1" d="M-1752 613l-309 310 -7 0 321 -321c-2,4 -3,7 -5,11z"/>
     <path class="fil1" d="M-1756 624l-298 299 -7 0 309 -310c-1,4 -3,7 -4,11z"/>
     <path class="fil1" d="M-1760 635l-288 288 -6 0 298 -299c-1,3 -2,7 -4,11z"/>
     <path class="fil1" d="M-1763 645l-278 278 -7 0 288 -288c-1,3 -2,6 -3,10z"/>
     <path class="fil1" d="M-1767 655l-267 267c-1,0 -2,0 -3,1l0 0 -4 0 278 -278c-1,3 -3,7 -4,10z"/>
     <path class="fil1" d="M-1770 665l-256 256c-3,0 -5,1 -8,1l267 -267 -3 10z"/>
     <path class="fil1" d="M-1774 676l-244 244c-3,0 -5,1 -8,1l256 -256 -1 3 -3 8z"/>
     <path class="fil1" d="M-1777 686l-232 232c-3,1 -6,1 -9,2l244 -244 -3 10z"/>
     <path class="fil1" d="M-1781 696l-219 220c-3,1 -6,1 -9,2l232 -232c-1,3 -3,7 -4,10z"/>
     <path class="fil1" d="M-1784 707l-207 206c-3,1 -6,2 -9,3l219 -220c-1,4 -2,7 -3,11z"/>
     <path class="fil1" d="M-1788 717l-194 193c-3,1 -6,2 -9,3l207 -206c-2,3 -3,7 -4,10z"/>
     <path class="fil1" d="M-1793 728l-178 179c-4,1 -7,2 -11,3l194 -193c-2,4 -3,8 -5,11z"/>
     <path class="fil1" d="M-1797 740l-163 163c-4,1 -7,2 -11,4l178 -179c-1,4 -3,8 -4,12z"/>
     <path class="fil1" d="M-1803 752l-145 145c-4,2 -8,4 -12,6l163 -163c-2,4 -4,8 -6,12z"/>
     <path class="fil1" d="M-1809 765l-126 126c-4,2 -9,4 -13,6l145 -145c-2,4 -4,9 -6,13z"/>
     <path class="fil1" d="M-1817 780l-102 102c-6,3 -11,6 -16,9l126 -126c-2,4 -5,8 -7,12 0,1 -1,2 -1,3z"/>
     <path class="fil1" d="M-1830 799l-70 70c-6,5 -13,9 -19,13l102 -102c-4,7 -8,13 -13,19z"/>
     <path class="fil1" d="M-1900 869l70 -70c-19,27 -43,51 -70,70z"/>
     <g style="clip-path:url(#id0)">
      <image transform="matrix(1.7692 -0 -0 -1.7692 -2489.6 854.217)" x="0" y="0" width="468" height="466" xlink:href="logo_Images\logo_ImgID1.png"/>
     </g>
     <path class="fil1" d="M-2006 50l-12 12c3,-4 7,-8 12,-12zm-452 452l-11 12c3,-5 7,-9 11,-12z"/>
     <path class="fil1" d="M-1990 41l-38 38c3,-6 6,-12 10,-17l12 -12c5,-4 10,-7 16,-9zm-451 451l-38 38c2,-6 5,-11 10,-16l11 -12c5,-4 11,-7 17,-10z"/>
     <path class="fil1" d="M-1979 37l-52 52c0,-3 2,-7 3,-10l38 -38c4,-2 7,-3 11,-4zm-452 452l-52 52c1,-4 2,-7 4,-11l38 -38c3,-1 7,-3 10,-3z"/>
     <path class="fil1" d="M-1971 35l-62 63c0,-3 1,-6 2,-9l52 -52c2,-1 5,-1 8,-2zm-451 452l-63 62c1,-3 1,-6 2,-8l52 -52c3,-1 6,-2 9,-2z"/>
     <path class="fil1" d="M-1964 35l-70 70c0,-2 1,-5 1,-7l62 -63c3,0 5,0 7,0zm-451 451l-70 70c0,-2 0,-4 0,-7l63 -62c2,0 5,-1 7,-1z"/>
     <path class="fil1" d="M-1957 35l-77 77 0 -5c0,0 0,-1 0,-2l70 -70c1,0 2,0 3,0l4 0zm-451 451l-77 77 0 -4c0,-1 0,-2 0,-3l70 -70c1,0 2,0 3,0l4 0z"/>
     <path class="fil1" d="M-1950 35l-84 84 0 -7 77 -77 7 0zm-451 451l-84 84 0 -7 77 -77 7 0z"/>
     <path class="fil1" d="M-1943 35l-91 90 0 -6 84 -84 7 0zm-452 451l-90 91 0 -7 84 -84 6 0z"/>
     <path class="fil1" d="M-1936 35l-98 97 0 -7 91 -90 7 0zm-452 451l-97 98 0 -7 90 -91 7 0z"/>
     <path class="fil1" d="M-1930 35l-104 104 0 -7 98 -97 6 0zm-451 451l-104 104 0 -6 97 -98 7 0z"/>
     <path class="fil1" d="M-1923 35l-111 111 0 -7 104 -104 7 0zm-451 451l-111 111 0 -7 104 -104 7 0z"/>
     <path class="fil1" d="M-1916 35l-118 117 0 -6 111 -111 7 0zm-452 451l-117 118 0 -7 111 -111 6 0z"/>
     <path class="fil1" d="M-1909 35l-125 124 0 -7 118 -117 7 0zm-452 451l-124 125 0 -7 117 -118 7 0z"/>
     <path class="fil1" d="M-1903 35l-131 131 0 -7 125 -124 6 0zm-451 451l-131 131 0 -6 124 -125 7 0z"/>
     <path class="fil1" d="M-1896 35l-138 138 0 -7 131 -131 7 0zm-451 451l-138 138 0 -7 131 -131 7 0z"/>
     <path class="fil1" d="M-1889 35l-145 144 0 -6 138 -138 7 0zm-452 451l-144 145 0 -7 138 -138 6 0z"/>
     <path class="fil1" d="M-1882 35l-152 151 0 -7 145 -144 7 0zm-452 451l-151 152 0 -7 144 -145 7 0z"/>
     <path class="fil1" d="M-1876 35l-158 158 0 -7 152 -151 6 0zm-451 451l-158 158 0 -6 151 -152 7 0z"/>
     <path class="fil1" d="M-1869 35l-165 165 0 -7 158 -158 7 0zm-451 451l-165 165 0 -7 158 -158 7 0z"/>
     <path class="fil1" d="M-1862 35l-172 171 0 -6 165 -165 7 0zm-452 451l-171 172 0 -7 165 -165 6 0z"/>
     <path class="fil1" d="M-1855 35l-179 178 0 -7 172 -171 7 0zm-452 451l-178 179 0 -7 171 -172 7 0z"/>
     <path class="fil1" d="M-1849 35l-185 185 0 -7 179 -178 6 0zm-451 451l-185 185 0 -6 178 -179 7 0z"/>
     <path class="fil1" d="M-1842 35l-192 192 0 -7 185 -185 7 0zm-451 451l-192 192 0 -7 185 -185 7 0z"/>
     <path class="fil1" d="M-1835 35l-199 198 0 -6 192 -192 7 0zm-452 451l-198 199 0 -7 192 -192 6 0z"/>
     <path class="fil1" d="M-1828 35l-206 205 0 -7 199 -198 7 0zm-452 451l-205 206 0 -7 198 -199 7 0z"/>
     <path class="fil1" d="M-1822 35l-212 212 0 -7 206 -205 6 0zm-451 451l-212 212 0 -6 205 -206 7 0z"/>
     <path class="fil1" d="M-1815 35l-219 219 0 -7 212 -212 7 0zm-451 451l-219 219 0 -7 212 -212 7 0z"/>
     <path class="fil1" d="M-1808 35l-226 225 0 -6 219 -219 7 0zm-452 451l-225 226 0 -7 219 -219 6 0z"/>
     <path class="fil1" d="M-1801 35l-233 232 0 -7 226 -225 7 0zm-452 451l-232 233 0 -7 225 -226 7 0z"/>
     <path class="fil1" d="M-1795 35l-239 239 0 -7 233 -232 6 0zm-451 451l-239 239 0 -6 232 -233 7 0z"/>
     <path class="fil1" d="M-1788 35l-246 246 0 -7 239 -239 7 0zm-451 451l-246 246 0 -7 239 -239 7 0z"/>
     <path class="fil1" d="M-1781 35l-253 252 0 -6 246 -246 7 0zm-452 451l-252 253 0 -7 246 -246 6 0z"/>
     <path class="fil1" d="M-1774 35l-260 259 0 -7 253 -252 7 0zm-452 451l-259 260 0 -7 252 -253 7 0z"/>
     <path class="fil1" d="M-1768 35l-266 266 0 -7 260 -259 6 0zm-451 451l-266 266 0 -6 259 -260 7 0z"/>
     <path class="fil1" d="M-1761 35l-273 273 0 -7 266 -266 7 0zm-451 451l-273 273 0 -7 266 -266 7 0z"/>
     <path class="fil1" d="M-1754 35l-280 279 0 -6 273 -273 7 0zm-452 451l-279 280 0 -7 273 -273 6 0z"/>
     <path class="fil1" d="M-1747 35l-287 286 0 -7 280 -279 7 0zm-452 451l-286 287 0 -7 279 -280 7 0z"/>
     <path class="fil1" d="M-1741 35l-293 293 0 -7 287 -286 6 0zm-451 451l-293 293 0 -6 286 -287 7 0z"/>
     <path class="fil1" d="M-1734 35l-300 300 0 -7 293 -293 7 0zm-451 451l-300 300 0 -7 293 -293 7 0z"/>
     <path class="fil1" d="M-1727 35l-307 306 0 -6 300 -300 7 0zm-452 451l-306 307 0 -7 300 -300 6 0z"/>
     <path class="fil1" d="M-1720 35l-314 313 0 -7 307 -306 7 0zm-452 451l-313 314 0 -7 306 -307 7 0z"/>
     <path class="fil1" d="M-1714 35l-320 320 0 -7 314 -313 6 0zm-451 451l-320 320 0 -6 313 -314 7 0z"/>
     <path class="fil1" d="M-1707 35l-327 327 0 -7 320 -320 7 0zm-451 451l-327 327 0 -7 320 -320 7 0z"/>
     <path class="fil1" d="M-1700 35l-334 333 0 -6 327 -327 7 0zm-452 451l-333 334 0 -7 327 -327 6 0z"/>
     <path class="fil1" d="M-1693 35l-341 340 0 -7 334 -333 7 0zm-452 451l-340 341 0 -7 333 -334 7 0z"/>
     <path class="fil1" d="M-1687 35l-347 347 0 -7 341 -340 6 0zm-451 451l-347 347 0 -6 340 -341 7 0z"/>
     <path class="fil1" d="M-1680 35l-354 354 0 -7 347 -347 7 0zm-451 451l-354 354 0 -7 347 -347 7 0z"/>
     <path class="fil1" d="M-1673 35l-361 360 0 -6 354 -354 7 0zm-452 451l-360 361 0 -7 354 -354 6 0z"/>
     <path class="fil1" d="M-1666 35l-368 367 0 -7 361 -360 3 0c0,0 0,0 0,0 0,0 0,0 0,0 0,0 0,0 0,0 0,0 0,0 0,0 0,0 0,0 1,0 0,0 0,0 0,0 0,0 0,0 0,0 0,0 0,0 0,0 0,0 0,0 0,0 0,0 0,0 0,0 0,0 0,0 0,0 0,0 0,0 0,0 0,0 0,0 0,0 1,0 1,0 1,0 0,0 0,0 0,0 0,0 0,0 0,0 0,0 0,0 0,0 0,0 0,0 0,0 0,0 0,0 0,0 0,0 0,0 0,0 0,0 0,0 0,0 0,0 0,0 0,0 0,0 1,0 1,0 0,0 0,0 0,0 0,0 0,0 1,0l0 0zm-452 451l-367 368c0,-2 0,-3 0,-4l0 0c0,0 0,0 0,0 0,0 0,0 0,0l0 -3 360 -361 7 0z"/>
     <path class="fil1" d="M-1660 35l-374 374 0 -7 368 -367 0 0c2,0 4,0 6,0zm-451 451l-374 374c0,-2 0,-4 0,-6l367 -368 7 0z"/>
     <path class="fil1" d="M-1655 36l-379 380 0 -7 374 -374c2,1 4,1 5,1zm-449 450l-379 379c-1,-1 -1,-3 -2,-5l374 -374 7 0z"/>
     <path class="fil1" d="M-1649 38l-385 384 0 -6 379 -380c2,1 4,1 6,2zm-449 448l-384 385c-1,-2 -1,-4 -1,-6l379 -379 6 0z"/>
     <path class="fil1" d="M-1644 40l-390 389 0 -7 385 -384c2,0 3,1 5,2zm-447 446l-389 390 0 0c-1,-2 -2,-4 -2,-5l384 -385 7 0z"/>
     <path class="fil1" d="M-1639 42l-395 394 0 -7 390 -389c1,0 3,1 5,2zm-445 444l-390 390c-1,0 -3,0 -5,0l-1 0 389 -390 7 0z"/>
     <path class="fil1" d="M-1635 44l-399 399 0 -7 395 -394c1,0 3,1 4,2zm-442 442l-390 390c-2,0 -4,0 -7,0l390 -390 7 0z"/>
     <path class="fil1" d="M-1631 46l-403 403 0 -6 399 -399c2,1 3,2 4,2zm-440 440l-389 389c-2,0 -4,1 -7,1l390 -390 6 0z"/>
     <path class="fil1" d="M-1627 49l-407 407 0 -7 403 -403c2,1 3,2 4,3zm-437 437l-389 389c-2,0 -4,0 -7,0l389 -389 7 0z"/>
     <path class="fil1" d="M-1623 52l-411 411 0 -7 407 -407c2,1 3,2 4,3zm-434 434l-389 389c-2,0 -4,0 -7,0l389 -389 7 0z"/>
     <path class="fil1" d="M-1619 55l-415 415 0 -7 411 -411c1,1 2,2 4,3zm-431 431l-388 388c-3,0 -5,1 -8,1l389 -389 7 0z"/>
     <path class="fil1" d="M-1616 59l-418 417 0 -6 415 -415c1,2 2,3 3,4zm-428 427l-387 388c-2,0 -5,0 -7,0l388 -388 6 0z"/>
     <path class="fil1" d="M-1613 63l-421 420 0 -7 418 -417c1,1 2,2 3,4zm-424 423l-386 387c-3,0 -5,0 -8,1l387 -388 7 0z"/>
     <path class="fil1" d="M-1610 66l-117 117c-13,12 -26,25 -38,38l-651 651c-2,0 -5,1 -7,1l386 -387 3 0 0 -3 421 -420c1,1 2,2 3,3z"/>
     <path class="fil1" d="M-1608 71l-76 76c-15,11 -29,23 -43,36l117 -117c1,2 2,3 2,5zm-192 192l-608 608c-3,1 -5,1 -8,1l651 -651c-9,10 -18,21 -27,32 -3,3 -5,6 -8,10z"/>
     <path class="fil1" d="M-1605 75l-54 54c-9,6 -17,12 -25,18l76 -76c1,1 2,2 3,4zm-213 213l-582 582c-3,0 -6,1 -8,1l608 -608c-6,8 -12,16 -18,25z"/>
     <path class="fil1" d="M-1603 80l-36 35c-7,5 -13,9 -20,14l54 -54c1,1 1,3 2,5zm-229 229l-560 560c-3,0 -6,1 -8,1l582 -582c-5,7 -10,14 -14,21z"/>
     <path class="fil1" d="M-1601 84l-20 20c-6,4 -12,7 -18,11l36 -35c1,1 1,3 2,4zm-243 243l-540 541c-3,0 -6,0 -8,1l560 -560c-4,6 -8,12 -12,18z"/>
     <path class="fil1" d="M-1600 90l-5 5c-5,3 -11,6 -16,9l20 -20c0,2 1,4 1,6zm-254 254l-522 522c-3,1 -6,1 -8,2l540 -541c-3,6 -7,12 -10,17z"/>
     <path class="fil1" d="M-1864 360l-504 504c-3,1 -5,2 -8,2l522 -522c-4,6 -7,11 -10,16zm259 -265l5 -5c0,0 1,1 1,2 -2,1 -4,2 -6,3z"/>
     <path class="fil1" d="M-1872 376l-487 487c-3,0 -6,1 -9,1l504 -504c-3,6 -6,11 -8,16z"/>
     <path class="fil1" d="M-1881 391l-469 470c-3,0 -6,1 -9,2l487 -487c-3,5 -6,10 -9,15z"/>
     <path class="fil1" d="M-1888 405l-453 453c-3,1 -6,2 -9,3l469 -470c-2,5 -5,10 -7,14z"/>
     <path class="fil1" d="M-1896 420l-436 436c-3,1 -6,2 -9,2l453 -453c-3,5 -5,10 -8,15z"/>
     <path class="fil1" d="M-1903 434l-420 419c-3,1 -6,2 -9,3l436 -436c-2,4 -5,9 -7,14z"/>
     <path class="fil1" d="M-1910 447l-403 404c-4,1 -7,2 -10,2l420 -419c-3,4 -5,9 -7,13z"/>
     <path class="fil1" d="M-1917 461l-386 386c-4,2 -7,3 -10,4l403 -404 -7 14z"/>
     <path class="fil1" d="M-1924 475l-369 369c-4,1 -7,2 -10,3l386 -386 -3 7 -4 7z"/>
     <path class="fil1" d="M-1931 489l-352 351c-3,2 -7,3 -10,4l369 -369 -7 14z"/>
     <path class="fil1" d="M-1938 503l-334 333c-3,2 -7,3 -11,4l352 -351c-3,4 -5,9 -7,14z"/>
     <path class="fil1" d="M-1946 517l-315 315c-3,1 -7,3 -11,4l334 -333c-3,4 -5,9 -8,14z"/>
     <path class="fil1" d="M-1953 531l-296 295c-4,2 -8,4 -12,6l315 -315c-2,4 -5,9 -7,14z"/>
     <path class="fil1" d="M-1961 545l-275 276c-4,2 -9,4 -13,5l296 -295c-3,5 -5,10 -8,14z"/>
     <path class="fil1" d="M-1969 561l-254 253c-4,3 -9,5 -13,7l275 -276c-3,6 -5,11 -8,16z"/>
     <path class="fil1" d="M-1978 576l-231 231c-5,3 -9,5 -14,7l254 -253c-3,5 -6,10 -9,15z"/>
     <path class="fil1" d="M-1988 593l-206 206c-5,2 -10,5 -15,8l231 -231c-3,6 -7,11 -10,17z"/>
     <path class="fil1" d="M-1999 611l-178 177c-6,4 -11,7 -17,11l206 -206c-4,6 -7,12 -11,18z"/>
     <path class="fil1" d="M-2012 631l-146 145c-6,4 -12,8 -19,12l178 -177c-4,6 -9,13 -13,20z"/>
     <path class="fil1" d="M-2030 655l-103 103c-8,6 -16,12 -25,18l146 -145c-6,8 -12,16 -18,24z"/>
     <path class="fil1" d="M-2066 698l-23 23c-14,13 -29,26 -44,37l103 -103c-2,2 -3,5 -5,7 -10,12 -20,25 -31,36z"/>
     <path class="fil1" d="M-2089 721l23 -23c-8,8 -15,16 -23,23z"/>
    </g>
   </g>
   <path class="fil2" d="M-614 1288l0 -1167 378 0c143,0 236,6 280,18 66,17 122,55 167,114 46,59 68,134 68,227 0,72 -13,132 -39,181 -26,49 -59,87 -99,115 -39,27 -80,46 -121,55 -57,11 -138,17 -244,17l-153 0 0 440 -237 0zm237 -970l0 333 128 0c93,0 154,-7 185,-19 32,-12 56,-31 74,-57 17,-26 26,-57 26,-91 0,-43 -12,-78 -37,-106 -25,-27 -56,-45 -94,-52 -28,-5 -84,-8 -169,-8l-113 0zm850 970l0 -1167 863 0 0 197 -627 0 0 259 583 0 0 197 -583 0 0 316 650 0 0 198 -886 0zm1086 0l0 -1167 496 0c125,0 216,11 272,32 57,21 102,58 136,111 34,54 51,115 51,184 0,88 -26,160 -77,217 -51,57 -128,93 -230,108 51,29 93,62 126,98 33,35 77,98 133,189l142 228 -281 0 -169 -255c-60,-91 -102,-148 -125,-171 -22,-23 -45,-40 -70,-48 -26,-9 -65,-14 -120,-14l-47 0 0 488 -237 0zm237 -673l174 0c113,0 183,-5 211,-15 28,-9 51,-26 66,-49 16,-23 24,-53 24,-88 0,-39 -10,-71 -31,-95 -21,-24 -51,-39 -89,-46 -19,-2 -76,-4 -172,-4l-183 0 0 297zm878 295l230 -23c13,77 41,133 83,169 42,36 99,54 170,54 76,0 133,-16 171,-48 38,-32 58,-70 58,-112 0,-28 -8,-51 -24,-71 -16,-19 -45,-36 -85,-50 -27,-10 -90,-27 -187,-51 -126,-32 -214,-70 -265,-116 -72,-65 -107,-143 -107,-236 0,-59 17,-115 50,-167 34,-52 82,-91 145,-118 64,-27 140,-41 229,-41 146,0 256,32 330,97 73,65 112,151 116,260l-236 8c-11,-60 -32,-104 -65,-130 -33,-26 -82,-39 -148,-39 -68,0 -121,14 -159,42 -25,18 -37,42 -37,73 0,27 11,51 35,70 29,26 101,52 216,79 114,27 198,55 253,84 55,29 98,68 129,118 30,51 46,113 46,186 0,67 -19,130 -56,188 -37,58 -89,102 -157,130 -68,29 -153,43 -254,43 -147,0 -261,-34 -340,-102 -79,-68 -126,-167 -141,-297zm1140 378l0 -1167 236 0 0 1167 -236 0z"/>
  </g>
 </g>
</svg>
